<svg width="274" height="309" xmlns="http://www.w3.org/2000/svg" xmlns:xlink="http://www.w3.org/1999/xlink" xml:space="preserve" overflow="hidden"><defs><clipPath id="clip0"><rect x="396" y="97" width="274" height="309"/></clipPath><clipPath id="clip1"><rect x="396" y="97" width="274" height="309"/></clipPath><clipPath id="clip2"><rect x="396" y="98" width="274" height="308"/></clipPath><clipPath id="clip3"><rect x="396" y="98" width="274" height="308"/></clipPath></defs><g clip-path="url(#clip0)" transform="translate(-396 -97)"><g clip-path="url(#clip1)"><g clip-path="url(#clip2)"><g clip-path="url(#clip3)"><g><path d="M540.04 0 540.04 77.0123 474.467 115.526 406.822 75.9716Z" fill="#A48D78" fill-rule="nonzero" fill-opacity="1" transform="matrix(1.00136 0 0 1 124.778 98.0158)"/><path d="M273.603 0 273.603 77.0123 339.168 115.526 406.822 75.9716Z" fill="#A48D78" fill-rule="nonzero" fill-opacity="1" transform="matrix(1.00136 0 0 1 124.778 98.0158)"/><path d="M474.467 115.526 474.467 191.805 406.822 231.139 406.822 153.015Z" fill="#A48D78" fill-rule="nonzero" fill-opacity="1" transform="matrix(1.00136 0 0 1 124.778 98.0158)"/><path d="M339.168 115.526 339.168 191.805 406.822 231.139 406.822 153.015Z" fill="#A48D78" fill-rule="nonzero" fill-opacity="1" transform="matrix(1.00136 0 0 1 124.778 98.0158)"/><path d="M540.04 153.015 540.04 268.518 474.467 307.135 474.467 191.805Z" fill="#A48D78" fill-rule="nonzero" fill-opacity="1" transform="matrix(1.00136 0 0 1 124.778 98.0158)"/><path d="M273.603 153.015 273.603 268.518 339.168 307.135 339.168 191.805Z" fill="#A48D78" fill-rule="nonzero" fill-opacity="1" transform="matrix(1.00136 0 0 1 124.778 98.0158)"/><path d="M61.9851 358.602 61.9851 413.342 48.653 413.342 48.653 380.512 36.409 413.342 25.655 413.342 13.3321 380.433 13.3321 413.342 0 413.342 0 358.602 15.7525 358.602 31.1108 396.493 46.3193 358.602 61.9851 358.602Z" fill="#A48D78" fill-rule="nonzero" fill-opacity="1" transform="matrix(1.00136 0 0 1 124.778 98.0158)"/><path d="M87.2143 410.298C82.9254 407.91 79.5194 404.567 76.9965 400.278 74.4736 395.989 73.2121 391.172 73.2121 385.81 73.2121 380.457 74.4736 375.648 76.9965 371.382 79.5194 367.117 82.9254 363.79 87.2143 361.401 91.5033 359.012 96.218 357.814 101.366 357.814 106.515 357.814 111.229 359.012 115.518 361.401 119.807 363.79 123.182 367.117 125.657 371.382 128.125 375.648 129.363 380.457 129.363 385.81 129.363 391.164 128.117 395.989 125.618 400.278 123.127 404.567 119.744 407.91 115.479 410.298 111.214 412.687 106.515 413.886 101.366 413.886 96.218 413.886 91.5033 412.687 87.2143 410.298ZM111.852 397.353C114.478 394.443 115.786 390.596 115.786 385.81 115.786 380.977 114.47 377.114 111.852 374.229 109.227 371.343 105.734 369.9 101.366 369.9 96.9513 369.9 93.427 371.335 90.8016 374.189 88.1762 377.051 86.8674 380.922 86.8674 385.81 86.8674 390.643 88.1762 394.507 90.8016 397.392 93.427 400.278 96.9513 401.721 101.366 401.721 105.734 401.721 109.227 400.262 111.852 397.353Z" fill="#A48D78" fill-rule="nonzero" fill-opacity="1" transform="matrix(1.00136 0 0 1 124.778 98.0158)"/><path d="M149.704 411.93C146.535 410.63 143.996 408.706 142.104 406.159 140.204 403.613 139.202 400.546 139.1 396.958L153.291 396.958C153.496 398.985 154.198 400.53 155.396 401.594 156.595 402.659 158.148 403.195 160.072 403.195 162.043 403.195 163.604 402.738 164.747 401.831 165.89 400.924 166.466 399.663 166.466 398.047 166.466 396.698 166.008 395.579 165.102 394.696 164.195 393.813 163.076 393.087 161.751 392.512 160.426 391.944 158.542 391.29 156.098 390.564 152.566 389.469 149.68 388.381 147.441 387.293 145.202 386.205 143.278 384.588 141.67 382.46 140.062 380.331 139.25 377.548 139.25 374.118 139.25 369.025 141.095 365.036 144.784 362.15 148.474 359.264 153.283 357.822 159.212 357.822 165.244 357.822 170.1 359.264 173.79 362.15 177.48 365.036 179.459 369.049 179.719 374.197L165.291 374.197C165.188 372.431 164.534 371.035 163.344 370.026 162.145 369.009 160.616 368.505 158.747 368.505 157.139 368.505 155.838 368.93 154.844 369.79 153.859 370.649 153.362 371.887 153.362 373.495 153.362 375.261 154.19 376.641 155.854 377.627 157.517 378.612 160.119 379.684 163.651 380.828 167.183 382.026 170.061 383.169 172.268 384.257 174.476 385.345 176.384 386.938 178 389.011 179.609 391.093 180.421 393.765 180.421 397.045 180.421 400.167 179.624 402.998 178.04 405.544 176.455 408.091 174.153 410.117 171.141 411.623 168.129 413.129 164.566 413.886 160.458 413.886 156.461 413.886 152.873 413.231 149.704 411.93Z" fill="#A48D78" fill-rule="nonzero" fill-opacity="1" transform="matrix(1.00136 0 0 1 124.778 98.0158)"/><path d="M226.59 403.668 206.162 403.668 202.89 413.334 188.936 413.334 208.74 358.594 224.178 358.594 243.983 413.334 229.87 413.334 226.59 403.668ZM223.161 393.379 216.38 373.338 209.679 393.379 223.161 393.379Z" fill="#A48D78" fill-rule="nonzero" fill-opacity="1" transform="matrix(1.00136 0 0 1 124.778 98.0158)"/><path d="M267.209 358.602 267.209 413.342 253.877 413.342 253.877 358.602 267.209 358.602Z" fill="#A48D78" fill-rule="nonzero" fill-opacity="1" transform="matrix(1.00136 0 0 1 124.778 98.0158)"/><path d="M282.024 371.43C284.365 367.196 287.621 363.892 291.808 361.527 295.994 359.162 300.733 357.979 306.039 357.979 312.535 357.979 318.093 359.69 322.721 363.128 327.349 366.557 330.44 371.24 332.001 377.161L317.344 377.161C316.256 374.875 314.703 373.133 312.709 371.934 310.706 370.736 308.435 370.145 305.889 370.145 301.781 370.145 298.454 371.572 295.908 374.434 293.361 377.295 292.084 381.111 292.084 385.897 292.084 390.683 293.353 394.499 295.908 397.361 298.454 400.223 301.781 401.65 305.889 401.65 308.435 401.65 310.706 401.05 312.709 399.86 314.711 398.661 316.256 396.927 317.344 394.633L332.001 394.633C330.44 400.562 327.349 405.221 322.721 408.627 318.093 412.033 312.535 413.736 306.039 413.736 300.733 413.736 295.994 412.553 291.808 410.188 287.621 407.823 284.365 404.535 282.024 400.325 279.682 396.115 278.515 391.306 278.515 385.897 278.515 380.489 279.69 375.663 282.024 371.43Z" fill="#A48D78" fill-rule="nonzero" fill-opacity="1" transform="matrix(1.00136 0 0 1 124.778 98.0158)"/><path d="M373.566 411.93C370.397 410.63 367.858 408.706 365.966 406.159 364.066 403.613 363.065 400.546 362.962 396.958L377.154 396.958C377.359 398.985 378.06 400.53 379.259 401.594 380.457 402.659 382.01 403.195 383.934 403.195 385.905 403.195 387.466 402.738 388.609 401.831 389.752 400.924 390.328 399.663 390.328 398.047 390.328 396.698 389.871 395.579 388.964 394.696 388.057 393.813 386.938 393.087 385.613 392.512 384.289 391.944 382.404 391.29 379.96 390.564 376.428 389.469 373.543 388.381 371.304 387.293 369.064 386.205 367.141 384.588 365.532 382.46 363.924 380.331 363.112 377.548 363.112 374.118 363.112 369.025 364.957 365.036 368.647 362.15 372.336 359.264 377.146 357.822 383.075 357.822 389.106 357.822 393.963 359.264 397.652 362.15 401.342 365.036 403.321 369.049 403.581 374.197L389.153 374.197C389.051 372.431 388.396 371.035 387.206 370.026 386.007 369.009 384.478 368.505 382.609 368.505 381.001 368.505 379.7 368.93 378.707 369.79 377.721 370.649 377.224 371.887 377.224 373.495 377.224 375.261 378.052 376.641 379.716 377.627 381.379 378.612 383.981 379.684 387.513 380.828 391.045 382.026 393.923 383.169 396.131 384.257 398.338 385.345 400.246 386.938 401.862 389.011 403.471 391.093 404.283 393.765 404.283 397.045 404.283 400.167 403.487 402.998 401.902 405.544 400.317 408.091 398.015 410.117 395.003 411.623 391.991 413.129 388.428 413.886 384.32 413.886 380.323 413.886 376.736 413.231 373.566 411.93Z" fill="#A48D78" fill-rule="nonzero" fill-opacity="1" transform="matrix(1.00136 0 0 1 124.778 98.0158)"/><path d="M428.109 410.298C423.82 407.91 420.414 404.567 417.891 400.278 415.368 395.989 414.107 391.172 414.107 385.81 414.107 380.457 415.368 375.648 417.891 371.382 420.414 367.117 423.82 363.79 428.109 361.401 432.398 359.012 437.112 357.814 442.261 357.814 447.409 357.814 452.124 359.012 456.413 361.401 460.702 363.79 464.076 367.117 466.552 371.382 469.02 375.648 470.257 380.457 470.257 385.81 470.257 391.164 469.012 395.989 466.512 400.278 464.021 404.567 460.639 407.91 456.373 410.298 452.108 412.687 447.409 413.886 442.261 413.886 437.112 413.886 432.398 412.687 428.109 410.298ZM452.747 397.353C455.372 394.443 456.681 390.596 456.681 385.81 456.681 380.977 455.364 377.114 452.747 374.229 450.121 371.343 446.629 369.9 442.261 369.9 437.838 369.9 434.321 371.335 431.696 374.189 429.071 377.051 427.762 380.922 427.762 385.81 427.762 390.643 429.071 394.507 431.696 397.392 434.321 400.278 437.846 401.721 442.261 401.721 446.629 401.721 450.121 400.262 452.747 397.353Z" fill="#A48D78" fill-rule="nonzero" fill-opacity="1" transform="matrix(1.00136 0 0 1 124.778 98.0158)"/><path d="M517.192 358.602 517.192 369.285 494.895 369.285 494.895 380.828 511.578 380.828 511.578 391.195 494.895 391.195 494.895 413.342 481.563 413.342 481.563 358.602 517.192 358.602Z" fill="#A48D78" fill-rule="nonzero" fill-opacity="1" transform="matrix(1.00136 0 0 1 124.778 98.0158)"/><path d="M567.485 358.602 567.485 369.285 552.978 369.285 552.978 413.342 539.646 413.342 539.646 369.285 525.139 369.285 525.139 358.602 567.485 358.602Z" fill="#A48D78" fill-rule="nonzero" fill-opacity="1" transform="matrix(1.00136 0 0 1 124.778 98.0158)"/><path d="M653.406 358.602 639.136 413.342 623.005 413.342 614.269 377.319 605.226 413.342 589.087 413.342 575.211 358.602 589.481 358.602 597.358 398.449 607.102 358.602 621.759 358.602 631.117 398.449 639.073 358.602 653.406 358.602Z" fill="#A48D78" fill-rule="nonzero" fill-opacity="1" transform="matrix(1.00136 0 0 1 124.778 98.0158)"/><path d="M698.085 403.668 677.658 403.668 674.386 413.334 660.431 413.334 680.236 358.594 695.673 358.594 715.478 413.334 701.365 413.334 698.085 403.668ZM694.656 393.379 687.875 373.338 681.166 393.379 694.656 393.379Z" fill="#A48D78" fill-rule="nonzero" fill-opacity="1" transform="matrix(1.00136 0 0 1 124.778 98.0158)"/><path d="M753.29 413.334 741.905 392.67 738.704 392.67 738.704 413.334 725.372 413.334 725.372 358.594 747.747 358.594C752.06 358.594 755.742 359.351 758.777 360.857 761.821 362.363 764.091 364.429 765.597 367.054 767.103 369.679 767.86 372.604 767.86 375.829 767.86 379.471 766.835 382.72 764.777 385.574 762.719 388.436 759.692 390.462 755.695 391.652L768.325 413.326 753.29 413.326ZM738.712 383.24 746.975 383.24C749.419 383.24 751.248 382.641 752.47 381.45 753.692 380.252 754.299 378.565 754.299 376.381 754.299 374.299 753.684 372.667 752.47 371.469 751.248 370.271 749.419 369.672 746.975 369.672L738.712 369.672 738.712 383.24Z" fill="#A48D78" fill-rule="nonzero" fill-opacity="1" transform="matrix(1.00136 0 0 1 124.778 98.0158)"/><path d="M793.452 369.285 793.452 380.354 811.309 380.354 811.309 390.643 793.452 390.643 793.452 402.651 813.643 402.651 813.643 413.334 780.112 413.334 780.112 358.594 813.643 358.594 813.643 369.277 793.452 369.277Z" fill="#A48D78" fill-rule="nonzero" fill-opacity="1" transform="matrix(1.00136 0 0 1 124.778 98.0158)"/></g></g></g></g></g></svg>