<?xml version="1.0" encoding="utf-8"?>
<!-- Generator: Adobe Illustrator 26.5.0, SVG Export Plug-In . SVG Version: 6.00 Build 0)  -->
<svg version="1.1" id="Layer_1" xmlns="http://www.w3.org/2000/svg"
  xmlns:xlink="http://www.w3.org/1999/xlink" x="0px" y="0px"
  viewBox="0 0 1032 524.96" style="enable-background:new 0 0 1032 524.96;" xml:space="preserve">
<style type="text/css">
	.st0{fill:#2e221c;}
	.st1{fill:#FFFFFF;}
</style>
  <g>
	<g>
		<polygon class="st0" points="684.97,0 684.97,97.68 601.8,146.53 516,96.36 		"/>
    <polygon class="st0" points="347.03,0 347.03,97.68 430.19,146.53 516,96.36 		"/>
    <polygon class="st0" points="601.8,146.53 601.8,243.28 516,293.17 516,194.08 		"/>
    <polygon class="st0" points="430.19,146.53 430.19,243.28 516,293.17 516,194.08 		"/>
    <polygon class="st0" points="684.97,194.08 684.97,340.58 601.8,389.56 601.8,243.28 		"/>
    <polygon class="st0" points="347.03,194.08 347.03,340.58 430.19,389.56 430.19,243.28 		"/>
	</g>
    <g>
		<g>
			<path class="st0" d="M78.62,454.84v69.43H61.71v-41.64l-15.53,41.64H32.54l-15.63-41.74v41.74H0v-69.43h19.98l19.48,48.06
				l19.29-48.06H78.62z"/>
      <path class="st0" d="M110.62,520.41c-5.44-3.03-9.76-7.27-12.96-12.71c-3.2-5.44-4.8-11.55-4.8-18.35c0-6.79,1.6-12.89,4.8-18.3
				c3.2-5.41,7.52-9.63,12.96-12.66c5.44-3.03,11.42-4.55,17.95-4.55c6.53,0,12.51,1.52,17.95,4.55c5.44,3.03,9.72,7.25,12.86,12.66
				c3.13,5.41,4.7,11.51,4.7,18.3c0,6.79-1.58,12.91-4.75,18.35c-3.16,5.44-7.45,9.68-12.86,12.71c-5.41,3.03-11.37,4.55-17.9,4.55
				C122.04,524.96,116.06,523.44,110.62,520.41z M141.87,503.99c3.33-3.69,4.99-8.57,4.99-14.64c0-6.13-1.67-11.03-4.99-14.69
				c-3.33-3.66-7.76-5.49-13.3-5.49c-5.6,0-10.07,1.82-13.4,5.44c-3.33,3.63-4.99,8.54-4.99,14.74c0,6.13,1.66,11.03,4.99,14.69
				c3.33,3.66,7.8,5.49,13.4,5.49C134.11,509.53,138.54,507.68,141.87,503.99z"/>
      <path class="st0" d="M189.88,522.48c-4.02-1.65-7.24-4.09-9.64-7.32c-2.41-3.23-3.68-7.12-3.81-11.67h18
				c0.26,2.57,1.15,4.53,2.67,5.88c1.52,1.35,3.49,2.03,5.93,2.03c2.5,0,4.48-0.58,5.93-1.73c1.45-1.15,2.18-2.75,2.18-4.8
				c0-1.71-0.58-3.13-1.73-4.25c-1.15-1.12-2.57-2.04-4.25-2.77c-1.68-0.72-4.07-1.55-7.17-2.47c-4.48-1.39-8.14-2.77-10.98-4.15
				c-2.84-1.38-5.28-3.43-7.32-6.13c-2.04-2.7-3.07-6.23-3.07-10.58c0-6.46,2.34-11.52,7.02-15.18c4.68-3.66,10.78-5.49,18.3-5.49
				c7.65,0,13.81,1.83,18.49,5.49c4.68,3.66,7.19,8.75,7.52,15.28h-18.3c-0.13-2.24-0.96-4.01-2.47-5.29
				c-1.52-1.29-3.46-1.93-5.83-1.93c-2.04,0-3.69,0.54-4.95,1.63c-1.25,1.09-1.88,2.66-1.88,4.7c0,2.24,1.05,3.99,3.16,5.24
				c2.11,1.25,5.41,2.61,9.89,4.06c4.48,1.52,8.13,2.97,10.93,4.35c2.8,1.38,5.22,3.4,7.27,6.03c2.04,2.64,3.07,6.03,3.07,10.19
				c0,3.96-1.01,7.55-3.02,10.78c-2.01,3.23-4.93,5.8-8.75,7.71c-3.82,1.91-8.34,2.87-13.55,2.87
				C198.45,524.96,193.9,524.13,189.88,522.48z"/>
      <path class="st0" d="M287.4,512h-25.91l-4.15,12.26h-17.7l25.12-69.43h19.58l25.12,69.43h-17.9L287.4,512z M283.05,498.95
				l-8.6-25.42l-8.5,25.42H283.05z"/>
      <path class="st0" d="M338.92,454.84v69.43h-16.91v-69.43H338.92z"/>
      <path class="st0" d="M357.71,471.11c2.97-5.37,7.1-9.56,12.41-12.56c5.31-3,11.32-4.5,18.05-4.5c8.24,0,15.29,2.17,21.16,6.53
				c5.87,4.35,9.79,10.29,11.77,17.8h-18.59c-1.38-2.9-3.35-5.11-5.88-6.63c-2.54-1.52-5.42-2.27-8.65-2.27
				c-5.21,0-9.43,1.81-12.66,5.44c-3.23,3.63-4.85,8.47-4.85,14.54c0,6.07,1.61,10.91,4.85,14.54c3.23,3.63,7.45,5.44,12.66,5.44
				c3.23,0,6.11-0.76,8.65-2.27c2.54-1.52,4.5-3.72,5.88-6.63h18.59c-1.98,7.52-5.9,13.43-11.77,17.75
				c-5.87,4.32-12.92,6.48-21.16,6.48c-6.73,0-12.74-1.5-18.05-4.5c-5.31-3-9.44-7.17-12.41-12.51c-2.97-5.34-4.45-11.44-4.45-18.3
				C353.26,482.6,354.75,476.48,357.71,471.11z"/>
      <path class="st0" d="M473.82,522.48c-4.02-1.65-7.24-4.09-9.64-7.32c-2.41-3.23-3.68-7.12-3.81-11.67h18
				c0.26,2.57,1.15,4.53,2.67,5.88c1.52,1.35,3.49,2.03,5.93,2.03c2.5,0,4.48-0.58,5.93-1.73c1.45-1.15,2.18-2.75,2.18-4.8
				c0-1.71-0.58-3.13-1.73-4.25c-1.15-1.12-2.57-2.04-4.25-2.77c-1.68-0.72-4.07-1.55-7.17-2.47c-4.48-1.39-8.14-2.77-10.98-4.15
				c-2.84-1.38-5.28-3.43-7.32-6.13c-2.04-2.7-3.07-6.23-3.07-10.58c0-6.46,2.34-11.52,7.02-15.18c4.68-3.66,10.78-5.49,18.3-5.49
				c7.65,0,13.81,1.83,18.49,5.49c4.68,3.66,7.19,8.75,7.52,15.28h-18.3c-0.13-2.24-0.96-4.01-2.47-5.29
				c-1.52-1.29-3.46-1.93-5.83-1.93c-2.04,0-3.69,0.54-4.95,1.63c-1.25,1.09-1.88,2.66-1.88,4.7c0,2.24,1.05,3.99,3.16,5.24
				c2.11,1.25,5.41,2.61,9.89,4.06c4.48,1.52,8.13,2.97,10.93,4.35c2.8,1.38,5.22,3.4,7.27,6.03c2.04,2.64,3.07,6.03,3.07,10.19
				c0,3.96-1.01,7.55-3.02,10.78c-2.01,3.23-4.93,5.8-8.75,7.71c-3.82,1.91-8.34,2.87-13.55,2.87
				C482.39,524.96,477.84,524.13,473.82,522.48z"/>
      <path class="st0" d="M543,520.41c-5.44-3.03-9.76-7.27-12.96-12.71c-3.2-5.44-4.8-11.55-4.8-18.35c0-6.79,1.6-12.89,4.8-18.3
				c3.2-5.41,7.52-9.63,12.96-12.66c5.44-3.03,11.42-4.55,17.95-4.55c6.53,0,12.51,1.52,17.95,4.55c5.44,3.03,9.72,7.25,12.86,12.66
				c3.13,5.41,4.7,11.51,4.7,18.3c0,6.79-1.58,12.91-4.75,18.35c-3.16,5.44-7.45,9.68-12.86,12.71c-5.41,3.03-11.37,4.55-17.9,4.55
				C554.42,524.96,548.44,523.44,543,520.41z M574.25,503.99c3.33-3.69,4.99-8.57,4.99-14.64c0-6.13-1.67-11.03-4.99-14.69
				c-3.33-3.66-7.76-5.49-13.3-5.49c-5.61,0-10.07,1.82-13.4,5.44c-3.33,3.63-4.99,8.54-4.99,14.74c0,6.13,1.66,11.03,4.99,14.69
				c3.33,3.66,7.8,5.49,13.4,5.49C566.49,509.53,570.92,507.68,574.25,503.99z"/>
      <path class="st0"
        d="M655.99,454.84v13.55h-28.28v14.64h21.16v13.15h-21.16v28.09h-16.91v-69.43H655.99z"/>
      <path class="st0" d="M719.78,454.84v13.55h-18.4v55.88h-16.91v-55.88h-18.4v-13.55H719.78z"/>
      <path class="st0" d="M828.76,454.84l-18.1,69.43H790.2l-11.08-45.69l-11.47,45.69h-20.47l-17.6-69.43h18.1l9.99,50.54
				l12.36-50.54h18.59l11.87,50.54l10.09-50.54H828.76z"/>
      <path class="st0" d="M885.43,512h-25.91l-4.15,12.26h-17.7l25.12-69.43h19.58l25.12,69.43h-17.9L885.43,512z M881.08,498.95
				l-8.6-25.42l-8.51,25.42H881.08z"/>
      <path class="st0" d="M955.45,524.26l-14.44-26.21h-4.06v26.21h-16.91v-69.43h28.38c5.47,0,10.14,0.96,13.99,2.87
				c3.86,1.91,6.74,4.53,8.65,7.86c1.91,3.33,2.87,7.04,2.87,11.13c0,4.62-1.3,8.74-3.91,12.36c-2.61,3.63-6.45,6.2-11.52,7.71
				l16.02,27.49H955.45z M936.96,486.09h10.48c3.1,0,5.42-0.76,6.97-2.27c1.55-1.52,2.32-3.66,2.32-6.43c0-2.64-0.78-4.71-2.32-6.23
				c-1.55-1.52-3.87-2.28-6.97-2.28h-10.48V486.09z"/>
      <path class="st0"
        d="M1006.39,468.39v14.04h22.65v13.05h-22.65v15.23H1032v13.55h-42.53v-69.43H1032v13.55H1006.39z"/>
		</g>
	</g>
</g>
</svg>
