<svg xmlns="http://www.w3.org/2000/svg" xmlns:xlink="http://www.w3.org/1999/xlink" width="1366"
  zoomAndPan="magnify" viewBox="0 0 1024.5 576" height="768" preserveAspectRatio="xMidYMid meet"
  version="1.0">
  <defs>
    <filter x="0%" y="0%" width="100%" height="100%" id="92ef5f5c1b">
      <feColorMatrix values="0 0 0 0 1 0 0 0 0 1 0 0 0 0 1 0 0 0 1 0"
        color-interpolation-filters="sRGB"/>
    </filter>
    <clipPath id="07a227fb41">
      <path d="M 0 0.140625 L 1024 0.140625 L 1024 568 L 0 568 Z M 0 0.140625 "
        clip-rule="nonzero"/>
    </clipPath>
    <mask id="dca4dd7c85">
      <g filter="url(#92ef5f5c1b)">
        <rect x="-102.45" width="1229.4" fill="#000000" y="-57.6" height="691.2"
          fill-opacity="0.17"/>
      </g>
    </mask>
    <clipPath id="6d0a4c782c">
      <path d="M 0 0.140625 L 1024 0.140625 L 1024 566.746094 L 0 566.746094 Z M 0 0.140625 "
        clip-rule="nonzero"/>
    </clipPath>
    <clipPath id="ac134cb6ae">
      <path d="M 0 0.140625 L 1021 0.140625 L 1021 322 L 0 322 Z M 0 0.140625 "
        clip-rule="nonzero"/>
    </clipPath>
    <clipPath id="5685127ed4">
      <path d="M 0 0.140625 L 1020 0.140625 L 1020 329 L 0 329 Z M 0 0.140625 "
        clip-rule="nonzero"/>
    </clipPath>
    <clipPath id="b501eb7f48">
      <path d="M 0 0.140625 L 1020 0.140625 L 1020 337 L 0 337 Z M 0 0.140625 "
        clip-rule="nonzero"/>
    </clipPath>
    <clipPath id="7d22e95289">
      <path d="M 0 0.140625 L 1019 0.140625 L 1019 345 L 0 345 Z M 0 0.140625 "
        clip-rule="nonzero"/>
    </clipPath>
    <clipPath id="c1af4cf191">
      <path d="M 0 0.140625 L 1018 0.140625 L 1018 354 L 0 354 Z M 0 0.140625 "
        clip-rule="nonzero"/>
    </clipPath>
    <clipPath id="6722057417">
      <path d="M 1 0.140625 L 1018 0.140625 L 1018 363 L 1 363 Z M 1 0.140625 "
        clip-rule="nonzero"/>
    </clipPath>
    <clipPath id="1c4982354b">
      <path d="M 0 0.140625 L 1017 0.140625 L 1017 373 L 0 373 Z M 0 0.140625 "
        clip-rule="nonzero"/>
    </clipPath>
    <clipPath id="8de7455e86">
      <path d="M 1 0.140625 L 1017 0.140625 L 1017 383 L 1 383 Z M 1 0.140625 "
        clip-rule="nonzero"/>
    </clipPath>
    <clipPath id="efcb45afc7">
      <path d="M 1 0.140625 L 1016 0.140625 L 1016 395 L 1 395 Z M 1 0.140625 "
        clip-rule="nonzero"/>
    </clipPath>
    <clipPath id="e67f4b8f74">
      <path d="M 1 0.140625 L 1016 0.140625 L 1016 407 L 1 407 Z M 1 0.140625 "
        clip-rule="nonzero"/>
    </clipPath>
    <clipPath id="d22c239ee2">
      <path d="M 2 0.140625 L 1015 0.140625 L 1015 419 L 2 419 Z M 2 0.140625 "
        clip-rule="nonzero"/>
    </clipPath>
    <clipPath id="9f57afca5d">
      <path d="M 2 0.140625 L 1015 0.140625 L 1015 433 L 2 433 Z M 2 0.140625 "
        clip-rule="nonzero"/>
    </clipPath>
    <clipPath id="61a447504b">
      <path d="M 2 0.140625 L 1016 0.140625 L 1016 445 L 2 445 Z M 2 0.140625 "
        clip-rule="nonzero"/>
    </clipPath>
    <clipPath id="19256aa1e9">
      <path d="M 2 0.140625 L 1016 0.140625 L 1016 456 L 2 456 Z M 2 0.140625 "
        clip-rule="nonzero"/>
    </clipPath>
    <clipPath id="f24e6193cc">
      <path d="M 4 155 L 1024 155 L 1024 566.746094 L 4 566.746094 Z M 4 155 " clip-rule="nonzero"/>
    </clipPath>
    <clipPath id="ae33ce5a02">
      <rect x="0" width="1024" y="0" height="567"/>
    </clipPath>
    <clipPath id="8849152a15">
      <rect x="0" width="1024" y="0" height="568"/>
    </clipPath>
  </defs>
  <g clip-path="url(#07a227fb41)">
    <g mask="url(#dca4dd7c85)">
      <g transform="matrix(1, 0, 0, 1, 0, -0.000000000000058398)">
        <g clip-path="url(#8849152a15)">
          <g clip-path="url(#6d0a4c782c)">
            <g transform="matrix(1, 0, 0, 1, 0, -0.000000000000058398)">
              <g clip-path="url(#ae33ce5a02)">
                <g clip-path="url(#ac134cb6ae)">
                  <path fill="#cbb79e"
                    d="M 219.429688 321.078125 C 228.496094 321.078125 237.566406 320.683594 247.03125 320.09375 C 412.4375 307.867188 521.859375 187.410156 561.289062 136.347656 C 605.84375 78.582031 621.8125 30.871094 635.8125 -11.316406 C 650.597656 -55.675781 662.425781 -90.769531 703.039062 -119.75 C 771.449219 -168.839844 877.910156 -166.871094 1019.269531 -113.640625 L 1020.058594 -115.414062 C 877.910156 -168.644531 770.859375 -170.617188 701.660156 -121.132812 C 660.652344 -91.753906 648.824219 -56.464844 633.839844 -11.710938 C 619.839844 30.28125 603.871094 77.792969 559.511719 135.363281 C 520.28125 186.226562 411.257812 306.09375 246.832031 318.316406 C 141.554688 326.203125 55.003906 287.363281 0.984375 253.457031 L 0 255.03125 C 49.484375 285.984375 125.980469 321.078125 219.429688 321.078125 Z M 219.429688 321.078125 "
                    fill-opacity="1" fill-rule="nonzero"/>
                </g>
                <g clip-path="url(#5685127ed4)">
                  <path fill="#cbb79e"
                    d="M 204.445312 328.371094 C 218.046875 328.371094 231.453125 327.582031 245.058594 326.007812 C 311.695312 318.316406 375.175781 291.703125 433.730469 246.949219 C 482.820312 209.492188 519.097656 166.707031 542.953125 138.515625 C 547.683594 132.996094 552.023438 127.671875 555.964844 123.335938 C 601.902344 71.089844 619.644531 26.929688 635.613281 -12.105469 C 652.371094 -53.3125 665.582031 -85.839844 706.585938 -111.273438 C 777.5625 -155.433594 879.6875 -150.507812 1018.675781 -96.683594 L 1019.464844 -98.457031 C 879.6875 -152.476562 776.96875 -157.40625 705.40625 -113.046875 C 663.804688 -87.222656 650.597656 -54.492188 633.640625 -12.894531 C 617.871094 25.945312 600.125 69.90625 554.386719 121.957031 C 550.445312 126.488281 546.105469 131.617188 541.375 137.136719 C 491.300781 196.28125 398.046875 306.292969 244.664062 324.035156 C 164.816406 333.300781 82.804688 314.769531 0.984375 269.226562 L 0 271 C 68.410156 309.050781 137.019531 328.371094 204.445312 328.371094 Z M 204.445312 328.371094 "
                    fill-opacity="1" fill-rule="nonzero"/>
                </g>
                <g clip-path="url(#b501eb7f48)">
                  <path fill="#cbb79e"
                    d="M 190.449219 336.0625 C 207.402344 336.0625 224.949219 334.878906 242.890625 331.921875 C 381.289062 309.839844 463.894531 211.660156 518.507812 146.597656 C 530.730469 132.207031 541.179688 119.589844 550.640625 109.929688 C 595.984375 63.203125 615.898438 23.378906 633.445312 -11.910156 C 652.570312 -50.550781 667.75 -80.914062 709.9375 -103.191406 C 782.6875 -141.4375 883.433594 -133.75 1018.28125 -79.730469 L 1019.070312 -81.503906 C 883.628906 -135.71875 782.492188 -143.410156 709.347656 -104.964844 C 666.566406 -82.488281 651.386719 -51.734375 631.867188 -12.699219 C 614.320312 22.394531 594.605469 62.21875 549.457031 108.550781 C 539.796875 118.40625 529.347656 131.023438 517.125 145.417969 C 462.710938 210.082031 380.304688 308.066406 242.691406 329.949219 C 128.542969 348.085938 32.726562 300.574219 1.183594 285 L 0.394531 286.773438 C 27.007812 299.984375 99.5625 336.0625 190.449219 336.0625 Z M 190.449219 336.0625 "
                    fill-opacity="1" fill-rule="nonzero"/>
                </g>
                <g clip-path="url(#7d22e95289)">
                  <path fill="#cbb79e"
                    d="M 175.265625 344.539062 C 196.363281 344.539062 218.441406 342.566406 241.113281 337.835938 C 368.082031 311.8125 442.207031 220.332031 496.226562 153.5 C 514.5625 130.828125 530.335938 111.308594 545.910156 96.71875 C 589.085938 55.910156 610.773438 20.621094 629.894531 -10.332031 C 652.371094 -46.804688 669.917969 -75.390625 713.882812 -94.710938 C 812.261719 -138.28125 934.296875 -97.277344 1017.691406 -62.578125 L 1018.480469 -64.351562 C 934.886719 -99.246094 812.261719 -140.453125 713.09375 -96.683594 C 668.734375 -77.167969 650.792969 -48.183594 628.320312 -11.515625 C 609.195312 19.4375 587.707031 54.53125 544.53125 95.144531 C 528.957031 109.929688 513.183594 129.449219 494.847656 152.121094 C 441.027344 218.757812 367.09375 310.039062 240.722656 335.863281 C 144.3125 355.578125 62.101562 327.582031 1.378906 300.96875 L 0.589844 302.742188 C 47.316406 323.246094 106.660156 344.539062 175.265625 344.539062 Z M 175.265625 344.539062 "
                    fill-opacity="1" fill-rule="nonzero"/>
                </g>
                <g clip-path="url(#c1af4cf191)">
                  <path fill="#cbb79e"
                    d="M 162.058594 353.015625 C 186.503906 353.015625 212.527344 350.453125 239.144531 343.75 C 357.039062 314.175781 422.691406 228.417969 475.527344 159.414062 C 497.804688 130.234375 518.898438 102.636719 540.980469 83.3125 C 580.609375 48.417969 603.675781 18.453125 623.785156 -7.964844 C 651.386719 -44.046875 671.296875 -70.070312 717.628906 -86.828125 C 816.792969 -122.3125 929.761719 -83.476562 1017.101562 -45.621094 L 1017.886719 -47.398438 C 930.15625 -85.445312 816.792969 -124.285156 717.035156 -88.402344 C 670.113281 -71.449219 649.019531 -43.847656 622.207031 -8.953125 C 602.097656 17.464844 579.03125 47.433594 539.601562 82.132812 C 517.519531 101.453125 496.425781 129.25 473.949219 158.429688 C 421.3125 227.035156 356.054688 312.601562 238.75 341.976562 C 134.652344 368 41.402344 332.316406 1.578125 317.136719 L 0.789062 318.910156 C 30.558594 330.148438 90.296875 353.015625 162.058594 353.015625 Z M 162.058594 353.015625 "
                    fill-opacity="1" fill-rule="nonzero"/>
                </g>
                <g clip-path="url(#6722057417)">
                  <path fill="#cbb79e"
                    d="M 147.46875 362.480469 C 175.660156 362.480469 206.023438 358.929688 237.171875 349.664062 C 347.378906 316.742188 405.144531 236.105469 456.007812 164.933594 C 482.035156 128.460938 506.875 93.960938 535.65625 70.300781 C 569.960938 42.308594 592.832031 18.058594 613.136719 -3.433594 C 646.652344 -38.722656 670.707031 -64.15625 721.175781 -78.347656 C 822.511719 -106.9375 932.324219 -66.71875 1016.507812 -28.667969 L 1017.296875 -30.441406 C 932.71875 -68.6875 822.511719 -108.90625 720.78125 -80.320312 C 669.917969 -65.929688 645.472656 -40.300781 611.957031 -4.8125 C 591.648438 16.480469 568.78125 40.730469 534.671875 68.726562 C 505.496094 92.582031 480.851562 127.082031 454.628906 163.75 C 403.765625 234.726562 346.394531 315.164062 236.777344 347.890625 C 136.429688 377.855469 45.542969 347.496094 1.773438 333.105469 L 1.183594 334.878906 C 31.347656 344.933594 84.378906 362.480469 147.46875 362.480469 Z M 147.46875 362.480469 "
                    fill-opacity="1" fill-rule="nonzero"/>
                </g>
                <g clip-path="url(#1c4982354b)">
                  <path fill="#cbb79e"
                    d="M 133.078125 372.335938 C 165.015625 372.335938 199.910156 368 235.398438 355.578125 C 338.902344 319.5 391.738281 239.851562 438.265625 169.667969 C 467.246094 126.097656 494.453125 84.890625 530.925781 57.09375 C 556.554688 37.574219 576.863281 20.027344 594.605469 4.847656 C 638.769531 -33.003906 667.75 -58.042969 725.121094 -69.871094 C 828.03125 -91.558594 929.960938 -52.523438 1015.917969 -11.515625 L 1016.707031 -13.289062 C 930.355469 -54.492188 828.03125 -93.53125 724.527344 -72.039062 C 666.761719 -60.015625 637.386719 -34.976562 593.226562 3.074219 C 575.484375 18.453125 555.175781 35.800781 529.546875 55.320312 C 492.875 83.3125 465.472656 124.714844 436.492188 168.285156 C 390.160156 238.273438 337.523438 317.527344 234.609375 353.410156 C 137.414062 387.320312 45.738281 361.097656 1.578125 348.480469 L 0.984375 350.453125 C 29.375 358.734375 76.890625 372.335938 133.078125 372.335938 Z M 133.078125 372.335938 "
                    fill-opacity="1" fill-rule="nonzero"/>
                </g>
                <g clip-path="url(#8de7455e86)">
                  <path fill="#cbb79e"
                    d="M 117.699219 382.589844 C 153.582031 382.589844 193.601562 377.265625 233.425781 361.296875 C 331.015625 322.0625 377.148438 246.554688 421.707031 173.609375 C 452.460938 123.140625 481.640625 75.429688 525.800781 43.6875 C 536.25 36.195312 545.910156 29.296875 554.980469 22.59375 C 621.617188 -25.710938 658.285156 -52.324219 728.867188 -61.984375 C 834.539062 -76.574219 933.113281 -36.160156 1015.523438 5.242188 L 1016.3125 3.46875 C 933.507812 -38.128906 834.734375 -78.546875 728.472656 -63.957031 C 657.496094 -54.296875 620.628906 -27.484375 553.796875 21.015625 C 544.726562 27.519531 535.066406 34.617188 524.617188 42.109375 C 480.0625 74.046875 450.882812 121.957031 419.929688 172.625 C 375.570312 245.371094 329.832031 320.683594 232.636719 359.523438 C 137.808594 397.570312 42.585938 374.503906 1.773438 364.648438 L 1.378906 366.621094 C 25.234375 372.335938 67.621094 382.589844 117.699219 382.589844 Z M 117.699219 382.589844 "
                    fill-opacity="1" fill-rule="nonzero"/>
                </g>
                <g clip-path="url(#efcb45afc7)">
                  <path fill="#cbb79e"
                    d="M 102.714844 394.023438 C 143.722656 394.023438 187.6875 387.320312 231.453125 367.410156 C 323.917969 325.21875 365.714844 249.90625 406.128906 177.15625 C 437.871094 119.785156 468.035156 65.769531 520.675781 30.476562 C 602.6875 -24.132812 650.203125 -47.988281 732.414062 -53.507812 C 842.425781 -61 941.195312 -16.839844 1014.929688 22.59375 L 1015.917969 20.816406 C 941.984375 -18.613281 842.820312 -62.972656 732.414062 -55.480469 C 649.808594 -49.761719 602.097656 -25.90625 519.6875 28.902344 C 466.65625 64.386719 436.492188 118.605469 404.554688 176.171875 C 364.335938 248.722656 322.734375 323.640625 230.863281 365.632812 C 148.453125 403.289062 65.453125 393.433594 2.167969 380.816406 L 1.773438 382.785156 C 31.542969 388.699219 66.046875 394.023438 102.714844 394.023438 Z M 102.714844 394.023438 "
                    fill-opacity="1" fill-rule="nonzero"/>
                </g>
                <g clip-path="url(#e67f4b8f74)">
                  <path fill="#cbb79e"
                    d="M 84.773438 406.050781 C 129.921875 406.050781 180.394531 398.558594 229.484375 373.324219 C 317.214844 328.175781 355.066406 252.863281 391.542969 179.917969 C 423.675781 115.84375 454.039062 55.320312 515.546875 17.269531 C 599.730469 -34.777344 660.058594 -41.480469 736.160156 -45.226562 C 855.632812 -51.140625 954.996094 5.636719 1014.339844 39.546875 L 1015.324219 37.773438 C 955.785156 3.664062 856.027344 -53.3125 736.160156 -47.398438 C 659.863281 -43.652344 599.335938 -36.75 514.761719 15.496094 C 452.65625 53.9375 422.296875 114.660156 389.964844 178.933594 C 353.492188 251.484375 315.835938 326.597656 228.695312 371.546875 C 146.484375 413.738281 60.132812 406.050781 2.167969 396.785156 L 1.773438 398.753906 C 25.433594 402.5 53.820312 406.050781 84.773438 406.050781 Z M 84.773438 406.050781 "
                    fill-opacity="1" fill-rule="nonzero"/>
                </g>
                <g clip-path="url(#d22c239ee2)">
                  <path fill="#cbb79e"
                    d="M 66.046875 418.863281 C 128.148438 418.863281 181.378906 405.65625 227.511719 379.238281 C 310.90625 331.328125 345.011719 255.425781 377.9375 181.890625 C 409.679688 111.113281 439.644531 44.476562 510.421875 4.058594 C 591.058594 -41.875 664.988281 -41.679688 739.710938 -36.949219 C 876.136719 -28.667969 979.640625 35.40625 1013.75 56.5 L 1014.734375 54.925781 C 980.628906 33.828125 876.730469 -30.640625 739.90625 -38.917969 C 664.792969 -43.453125 590.664062 -43.847656 509.632812 2.484375 C 438.265625 43.09375 408.101562 110.324219 376.359375 181.296875 C 343.632812 254.441406 309.527344 330.148438 226.722656 377.660156 C 165.804688 412.753906 92.265625 424.1875 2.367188 412.753906 L 2.167969 414.722656 C 24.445312 417.289062 45.738281 418.863281 66.046875 418.863281 Z M 66.046875 418.863281 "
                    fill-opacity="1" fill-rule="nonzero"/>
                </g>
                <g clip-path="url(#9f57afca5d)">
                  <path fill="#cbb79e"
                    d="M 47.117188 432.664062 C 116.121094 432.664062 176.054688 416.695312 225.738281 384.953125 C 305.1875 334.285156 335.746094 257.398438 365.320312 183.074219 C 396.074219 105.789062 425.058594 32.648438 505.496094 -9.347656 C 581.59375 -48.972656 663.804688 -38.722656 743.453125 -28.863281 C 838.480469 -17.035156 931.734375 18.253906 1013.15625 73.457031 L 1014.339844 71.878906 C 932.71875 16.480469 839.074219 -19.007812 743.847656 -30.835938 C 664.003906 -40.695312 581.398438 -50.945312 504.707031 -10.921875 C 423.675781 31.265625 394.5 104.804688 363.546875 182.480469 C 334.171875 256.414062 303.613281 333.105469 224.75 383.378906 C 165.015625 421.425781 90.296875 436.609375 2.5625 428.523438 L 2.367188 430.496094 C 17.546875 431.875 32.53125 432.664062 47.117188 432.664062 Z M 47.117188 432.664062 "
                    fill-opacity="1" fill-rule="nonzero"/>
                </g>
                <g clip-path="url(#61a447504b)">
                  <path fill="#cbb79e"
                    d="M 37.65625 444.101562 C 112.574219 444.101562 176.449219 427.144531 227.90625 393.628906 C 304.792969 343.355469 334.761719 269.03125 363.546875 197.070312 C 393.90625 121.757812 422.492188 50.585938 501.355469 9.1875 C 573.707031 -28.667969 648.625 -20.78125 727.878906 -12.304688 L 732.21875 -11.910156 C 830.988281 -1.460938 928.382812 33.828125 1014.144531 90.015625 L 1015.128906 88.441406 C 929.171875 32.054688 831.582031 -3.433594 732.414062 -13.882812 L 728.078125 -14.273438 C 651.976562 -22.359375 573.3125 -30.835938 500.566406 7.410156 C 421.113281 49.207031 392.328125 120.574219 361.769531 196.28125 C 332.988281 267.847656 303.019531 341.976562 226.722656 391.855469 C 167.578125 430.300781 92.265625 446.664062 2.5625 440.75 L 2.367188 442.71875 C 14.390625 443.707031 26.222656 444.101562 37.65625 444.101562 Z M 37.65625 444.101562 "
                    fill-opacity="1" fill-rule="nonzero"/>
                </g>
                <g clip-path="url(#19256aa1e9)">
                  <path fill="#cbb79e"
                    d="M 28.191406 455.730469 C 108.628906 455.730469 176.449219 437.789062 230.074219 402.105469 C 304.203125 352.425781 333.578125 280.660156 361.96875 211.066406 C 391.933594 137.726562 420.128906 68.332031 497.410156 27.519531 C 566.214844 -8.953125 637.78125 -2.445312 713.289062 4.257812 L 720.980469 5.046875 C 850.507812 16.675781 952.433594 66.753906 1014.929688 106.773438 L 1015.917969 105.199219 C 953.222656 65.175781 851.097656 14.902344 720.980469 3.269531 L 713.289062 2.484375 C 637.386719 -4.417969 565.625 -10.726562 496.226562 25.945312 C 418.355469 67.148438 389.964844 136.742188 359.800781 210.476562 C 331.605469 279.675781 302.230469 351.242188 228.695312 400.53125 C 169.945312 439.566406 93.84375 457.308594 2.5625 453.167969 L 2.5625 455.140625 C 11.238281 455.535156 19.714844 455.730469 28.191406 455.730469 Z M 28.191406 455.730469 "
                    fill-opacity="1" fill-rule="nonzero"/>
                </g>
                <path fill="#cbb79e"
                  d="M 19.125 467.757812 C 105.082031 467.757812 176.648438 448.632812 232.046875 410.78125 C 303.613281 361.886719 332.394531 292.492188 359.996094 225.261719 C 389.570312 153.894531 417.367188 86.46875 493.074219 46.25 C 558.921875 11.355469 627.136719 16.28125 699.292969 21.605469 L 709.546875 22.394531 C 844 32.054688 950.265625 82.917969 1015.71875 123.730469 L 1016.707031 122.152344 C 951.054688 81.144531 844.394531 30.28125 709.546875 20.621094 L 699.292969 19.832031 C 626.742188 14.507812 558.332031 9.382812 492.085938 44.671875 C 415.789062 85.285156 387.796875 153.105469 358.222656 224.671875 C 330.621094 291.503906 302.035156 360.902344 230.863281 409.402344 C 172.308594 449.421875 95.617188 468.347656 2.761719 465.785156 L 2.761719 467.757812 C 8.28125 467.757812 13.800781 467.757812 19.125 467.757812 Z M 19.125 467.757812 "
                  fill-opacity="1" fill-rule="nonzero"/>
                <path fill="#cbb79e"
                  d="M 10.644531 479.980469 C 101.730469 479.980469 176.84375 459.675781 234.214844 419.257812 C 303.019531 370.957031 331.214844 303.925781 358.417969 239.261719 C 387.597656 169.863281 415.003906 104.410156 489.128906 64.585938 C 552.023438 30.871094 617.277344 34.617188 686.476562 38.5625 C 690.421875 38.757812 694.5625 38.957031 698.503906 39.152344 C 837.496094 47.039062 948.292969 98.296875 1016.902344 140.09375 L 1017.886719 138.320312 C 949.28125 96.324219 838.085938 44.871094 698.503906 37.179688 C 694.5625 36.984375 690.421875 36.785156 686.476562 36.589844 C 617.082031 32.648438 551.429688 28.902344 488.144531 62.8125 C 413.425781 103.027344 385.824219 168.878906 356.644531 238.472656 C 329.636719 302.941406 301.640625 369.773438 233.230469 417.679688 C 174.476562 458.886719 97.195312 478.996094 3.15625 477.8125 L 3.15625 479.785156 C 5.519531 479.980469 8.082031 479.980469 10.644531 479.980469 Z M 10.644531 479.980469 "
                  fill-opacity="1" fill-rule="nonzero"/>
                <path fill="#cbb79e"
                  d="M 3.351562 492.402344 C 98.773438 492.402344 177.238281 470.714844 236.582031 428.128906 C 302.824219 380.421875 330.226562 315.953125 356.84375 253.652344 C 385.429688 186.226562 412.636719 122.546875 485.1875 83.3125 C 545.515625 50.785156 605.253906 53.148438 674.253906 56.109375 C 678.59375 56.304688 682.929688 56.5 687.265625 56.699219 C 830.792969 61.824219 946.324219 114.070312 1017.691406 156.851562 L 1018.675781 155.078125 C 946.914062 112.097656 831.1875 59.851562 687.265625 54.136719 C 682.929688 53.9375 678.59375 53.742188 674.253906 53.542969 C 604.859375 50.785156 544.726562 48.222656 484.003906 81.144531 C 410.863281 120.773438 383.65625 184.847656 354.871094 252.46875 C 328.453125 314.570312 301.050781 378.84375 235.398438 426.160156 C 176.449219 468.546875 98.378906 490.035156 3.351562 490.234375 Z M 3.351562 492.402344 "
                  fill-opacity="1" fill-rule="nonzero"/>
                <path fill="#cbb79e"
                  d="M 3.546875 504.625 C 100.152344 503.441406 179.210938 480.574219 238.75 436.410156 C 302.230469 389.488281 329.042969 327.386719 354.871094 267.453125 C 383.261719 202 409.875 140.289062 480.851562 101.453125 C 538.617188 69.90625 595.984375 71.289062 662.625 72.863281 C 666.960938 73.0625 671.496094 73.0625 676.03125 73.257812 C 824.089844 76.609375 944.152344 129.644531 1018.675781 173.410156 L 1019.664062 171.636719 C 944.746094 127.871094 824.484375 74.640625 675.832031 71.289062 C 671.296875 71.089844 666.960938 71.089844 662.425781 70.894531 C 595.59375 69.316406 538.023438 67.9375 479.667969 99.679688 C 408.101562 138.910156 381.289062 201.011719 352.898438 266.664062 C 327.074219 326.402344 300.261719 388.304688 237.371094 434.832031 C 178.222656 478.601562 99.5625 501.46875 3.351562 502.652344 Z M 3.546875 504.625 "
                  fill-opacity="1" fill-rule="nonzero"/>
                <path fill="#cbb79e"
                  d="M 3.546875 517.046875 C 101.136719 514.875 180.984375 490.824219 240.722656 445.085938 C 301.441406 398.753906 327.46875 339.214844 352.898438 281.648438 C 380.894531 218.164062 407.117188 158.230469 476.710938 119.785156 C 536.445312 86.863281 595.789062 88.441406 664.59375 90.214844 C 830.792969 94.355469 958.347656 154.683594 1019.464844 190.167969 L 1020.453125 188.394531 C 959.136719 152.910156 831.1875 92.582031 664.59375 88.242188 C 595.59375 86.46875 535.855469 84.890625 475.722656 118.210938 C 405.734375 156.851562 379.121094 217.179688 351.125 280.859375 C 325.890625 338.230469 299.867188 397.570312 239.539062 443.507812 C 180.195312 488.851562 100.742188 512.90625 3.546875 515.074219 Z M 3.546875 517.046875 "
                  fill-opacity="1" fill-rule="nonzero"/>
                <path fill="#cbb79e"
                  d="M 3.746094 529.464844 C 102.519531 526.507812 182.957031 501.078125 242.890625 453.761719 C 300.65625 408.21875 326.285156 351.042969 350.929688 296.039062 C 378.527344 234.527344 404.554688 176.371094 472.570312 138.515625 C 526.195312 108.550781 577.257812 108.15625 641.921875 107.5625 L 653.355469 107.367188 C 809.894531 105.789062 939.421875 160.597656 1020.453125 206.925781 L 1021.4375 205.152344 C 940.210938 158.625 810.289062 103.816406 653.355469 105.394531 L 641.921875 105.59375 C 577.058594 106.183594 525.800781 106.578125 471.585938 136.742188 C 402.976562 174.988281 376.953125 233.347656 349.152344 295.25 C 324.511719 350.257812 299.078125 407.035156 241.707031 452.183594 C 182.167969 499.105469 102.125 524.539062 3.746094 527.496094 Z M 3.746094 529.464844 "
                  fill-opacity="1" fill-rule="nonzero"/>
                <path fill="#cbb79e"
                  d="M 3.941406 541.886719 C 104.09375 538.140625 185.125 511.328125 245.058594 462.433594 C 300.0625 417.484375 324.902344 363.070312 348.957031 310.433594 C 376.164062 250.890625 401.792969 194.507812 468.429688 157.046875 C 520.476562 127.671875 570.160156 126.488281 633.050781 124.714844 L 642.121094 124.519531 C 802.402344 119.984375 936.859375 175.976562 1021.238281 223.488281 L 1022.226562 221.714844 C 937.449219 174.003906 802.796875 117.816406 641.921875 122.351562 L 632.851562 122.546875 C 569.765625 124.125 519.886719 125.503906 467.445312 155.078125 C 400.414062 192.929688 374.585938 249.511719 347.183594 309.445312 C 323.328125 361.886719 298.484375 416.105469 243.875 460.859375 C 184.335938 509.554688 103.503906 536.167969 3.941406 539.914062 Z M 3.941406 541.886719 "
                  fill-opacity="1" fill-rule="nonzero"/>
                <path fill="#cbb79e"
                  d="M 4.140625 554.109375 C 105.476562 549.574219 187.292969 521.578125 247.226562 470.914062 C 299.273438 426.75 323.328125 374.898438 346.789062 324.824219 C 373.796875 267.058594 399.03125 212.644531 464.289062 175.382812 C 514.957031 146.402344 561.289062 144.429688 625.363281 141.671875 L 630.683594 141.472656 C 794.910156 134.179688 934.296875 191.15625 1022.226562 240.246094 L 1023.210938 238.472656 C 935.085938 189.183594 795.304688 132.207031 630.683594 139.503906 L 625.363281 139.699219 C 560.894531 142.460938 514.367188 144.628906 463.5 173.609375 C 397.652344 211.265625 372.21875 265.875 345.210938 324.035156 C 321.945312 373.914062 297.894531 425.566406 246.242188 469.53125 C 186.503906 520.003906 105.277344 547.800781 4.335938 552.335938 Z M 4.140625 554.109375 "
                  fill-opacity="1" fill-rule="nonzero"/>
                <g clip-path="url(#f24e6193cc)">
                  <path fill="#cbb79e"
                    d="M 4.335938 566.53125 C 107.445312 561.207031 189.855469 532.027344 249.394531 479.585938 C 298.484375 436.214844 321.945312 386.925781 344.621094 339.414062 C 371.234375 283.621094 396.273438 230.78125 460.148438 193.914062 C 509.832031 165.328125 555.765625 162.371094 619.445312 158.625 C 754.101562 150.34375 889.742188 183.464844 1023.015625 257.003906 L 1024 255.230469 C 890.332031 181.496094 754.296875 148.375 619.25 156.457031 C 555.375 160.398438 509.238281 163.160156 459.164062 192.140625 C 394.695312 229.402344 369.460938 282.4375 342.84375 338.425781 C 320.171875 385.941406 296.910156 435.03125 248.015625 478.007812 C 188.871094 530.253906 106.855469 559.234375 4.140625 564.558594 Z M 4.335938 566.53125 "
                    fill-opacity="1" fill-rule="nonzero"/>
                </g>
                <path fill="#cbb79e"
                  d="M 4.535156 560.023438 C 104.882812 556.871094 186.308594 531.042969 246.832031 483.53125 C 298.289062 443.113281 323.917969 395.796875 348.5625 349.863281 C 364.335938 320.683594 379.121094 293.082031 400.019531 267.847656 C 418.355469 245.765625 438.855469 228.21875 462.710938 213.828125 C 510.816406 184.648438 552.414062 179.523438 616.488281 173.214844 C 748.1875 160.597656 884.8125 191.746094 1022.621094 266.074219 L 1023.605469 264.296875 C 885.402344 189.777344 748.382812 158.429688 616.292969 171.242188 C 551.824219 177.355469 509.238281 183.269531 461.726562 212.054688 C 437.675781 226.644531 416.972656 244.386719 398.441406 266.46875 C 377.347656 291.898438 362.558594 319.5 346.589844 348.679688 C 321.945312 394.417969 296.515625 441.535156 245.453125 481.558594 C 185.125 528.875 104.09375 554.308594 4.140625 557.660156 Z M 4.535156 560.023438 "
                  fill-opacity="1" fill-rule="nonzero"/>
                <path fill="#cbb79e"
                  d="M 4.730469 553.714844 C 103.503906 552.53125 181.96875 531.042969 244.46875 487.867188 C 298.484375 450.605469 326.480469 404.867188 353.292969 360.707031 C 369.066406 334.878906 384.050781 310.234375 403.765625 287.5625 C 422.296875 266.269531 442.601562 248.722656 465.472656 234.332031 C 513.773438 203.773438 557.34375 196.085938 613.730469 188.59375 C 742.46875 171.441406 879.882812 200.816406 1022.226562 275.929688 L 1023.210938 274.15625 C 880.671875 198.84375 742.667969 169.46875 613.53125 186.621094 C 556.949219 194.113281 513.183594 201.800781 464.488281 232.558594 C 441.421875 247.144531 421.113281 264.691406 402.382812 286.183594 C 382.472656 309.050781 367.488281 333.5 351.714844 359.523438 C 324.902344 403.488281 297.105469 449.027344 243.285156 486.09375 C 181.179688 529.070312 103.109375 550.363281 4.730469 551.546875 Z M 4.730469 553.714844 "
                  fill-opacity="1" fill-rule="nonzero"/>
                <path fill="#cbb79e"
                  d="M 11.828125 547.210938 C 104.6875 547.210938 180 529.070312 241.902344 491.808594 C 299.078125 457.507812 329.4375 413.34375 359.011719 370.5625 C 374.585938 348.085938 389.175781 326.796875 407.511719 306.6875 C 426.832031 285.589844 446.152344 268.832031 468.234375 254.242188 C 513.578125 224.277344 551.824219 213.628906 610.96875 203.378906 C 736.75 181.691406 875.152344 209.292969 1022.027344 285.195312 L 1023.015625 283.421875 C 875.742188 207.320312 736.949219 179.722656 610.773438 201.40625 C 551.429688 211.660156 512.789062 222.304688 467.246094 252.46875 C 445.363281 267.058594 425.253906 284.210938 406.128906 305.109375 C 387.597656 325.21875 372.21875 347.496094 357.433594 369.183594 C 328.058594 411.765625 297.699219 455.730469 241.113281 489.839844 C 178.027344 527.890625 100.941406 545.828125 5.125 544.84375 L 5.125 546.816406 C 7.097656 547.210938 9.464844 547.210938 11.828125 547.210938 Z M 11.828125 547.210938 "
                  fill-opacity="1" fill-rule="nonzero"/>
                <path fill="#cbb79e"
                  d="M 28.785156 541.097656 C 111.585938 541.097656 180.589844 526.3125 239.339844 495.949219 C 300.0625 464.601562 333.382812 421.625 365.714844 380.222656 C 379.910156 362.085938 394.5 343.355469 411.058594 326.203125 C 430.972656 305.503906 450.09375 289.140625 470.796875 274.550781 C 512.195312 245.765625 546.894531 231.570312 608.011719 218.558594 C 731.230469 192.339844 870.222656 217.96875 1021.632812 294.855469 L 1022.621094 293.082031 C 870.8125 215.996094 731.230469 190.367188 607.816406 216.589844 C 546.304688 229.601562 511.605469 243.792969 469.808594 272.972656 C 448.910156 287.5625 429.789062 303.925781 409.679688 324.824219 C 393.117188 341.976562 378.332031 360.902344 364.136719 379.039062 C 332 420.246094 298.683594 463.027344 238.355469 494.175781 C 174.476562 527.296875 98.179688 541.886719 4.929688 538.730469 L 4.929688 540.703125 C 13.011719 540.902344 21.09375 541.097656 28.785156 541.097656 Z M 28.785156 541.097656 "
                  fill-opacity="1" fill-rule="nonzero"/>
                <path fill="#cbb79e"
                  d="M 47.511719 535.578125 C 120.066406 535.578125 182.363281 523.945312 236.777344 500.089844 C 301.835938 471.699219 338.703125 429.707031 374.390625 389.292969 C 387.203125 374.703125 400.414062 359.71875 414.804688 345.722656 C 435.703125 325.21875 454.433594 309.050781 473.554688 295.054688 C 515.941406 263.902344 550.445312 247.933594 605.253906 233.9375 C 725.316406 203.183594 865.292969 226.839844 1021.238281 304.714844 L 1022.027344 302.941406 C 865.886719 224.671875 725.316406 200.816406 604.859375 231.769531 C 549.65625 245.765625 515.15625 261.933594 472.371094 293.28125 C 453.050781 307.472656 434.324219 323.640625 413.425781 344.144531 C 399.03125 358.140625 385.824219 373.324219 373.007812 387.910156 C 337.523438 428.128906 300.851562 469.925781 236.1875 498.117188 C 171.71875 526.3125 96.210938 537.351562 5.519531 532.226562 L 5.324219 534.199219 C 19.714844 535.183594 33.710938 535.578125 47.511719 535.578125 Z M 47.511719 535.578125 "
                  fill-opacity="1" fill-rule="nonzero"/>
                <path fill="#cbb79e"
                  d="M 68.214844 530.648438 C 130.316406 530.648438 185.125 521.972656 234.214844 504.230469 C 304.992188 478.796875 346 437.398438 385.625 397.375 C 396.273438 386.730469 407.117188 375.6875 418.550781 365.042969 C 434.71875 349.863281 454.433594 332.117188 476.316406 315.164062 C 515.15625 285.195312 546.699219 265.679688 602.492188 248.921875 C 719.597656 213.433594 860.363281 235.515625 1021.042969 314.175781 L 1021.832031 312.402344 C 860.757812 233.542969 719.597656 211.460938 601.902344 247.144531 C 545.710938 264.101562 513.972656 283.621094 474.9375 313.785156 C 452.855469 330.933594 433.335938 348.679688 416.972656 363.859375 C 405.734375 374.308594 394.695312 385.546875 384.050781 396.191406 C 344.621094 436.015625 303.808594 477.222656 233.425781 502.652344 C 168.5625 526.113281 93.84375 533.804688 5.324219 526.3125 L 5.125 528.28125 C 27.007812 529.664062 48.105469 530.648438 68.214844 530.648438 Z M 68.214844 530.648438 "
                  fill-opacity="1" fill-rule="nonzero"/>
                <path fill="#cbb79e"
                  d="M 91.28125 526.507812 C 142.539062 526.507812 188.871094 520.398438 231.652344 508.171875 C 309.921875 485.699219 356.054688 444.101562 400.414062 403.683594 C 407.511719 397.375 414.609375 390.671875 421.902344 384.363281 L 429.789062 377.464844 C 446.546875 362.675781 462.316406 348.679688 478.679688 335.273438 C 515.15625 305.503906 545.121094 282.832031 599.335938 263.707031 C 713.488281 223.6875 855.238281 243.792969 1020.253906 323.445312 L 1021.042969 321.667969 C 855.4375 241.824219 713.289062 221.714844 598.550781 261.933594 C 543.9375 281.054688 513.773438 303.730469 477.105469 333.695312 C 460.742188 347.101562 444.773438 361.097656 428.015625 375.886719 L 420.128906 382.785156 C 412.832031 389.09375 405.539062 395.796875 398.636719 402.105469 C 354.28125 442.324219 308.539062 483.925781 230.667969 506.203125 C 165.410156 524.929688 91.675781 529.070312 5.125 519.410156 L 4.929688 521.382812 C 35.488281 524.734375 64.074219 526.507812 91.28125 526.507812 Z M 91.28125 526.507812 "
                  fill-opacity="1" fill-rule="nonzero"/>
                <path fill="#cbb79e"
                  d="M 117.304688 523.550781 C 157.128906 523.550781 194.390625 519.804688 229.285156 512.3125 C 318.398438 493.191406 370.644531 449.621094 421.3125 407.625 L 425.84375 403.882812 C 440.828125 391.460938 454.433594 379.433594 467.640625 368 C 472.371094 363.859375 477.105469 359.71875 481.835938 355.578125 L 484.597656 353.214844 C 519.292969 323.050781 546.5 299.195312 596.972656 279.085938 C 708.164062 234.132812 850.507812 252.273438 1020.253906 332.90625 L 1021.042969 331.132812 C 850.703125 250.300781 707.769531 231.964844 595.984375 276.917969 C 545.121094 297.222656 517.71875 321.273438 483.019531 351.4375 L 480.257812 353.804688 C 475.527344 357.945312 470.796875 362.085938 466.0625 366.226562 C 452.855469 377.660156 439.25 389.6875 424.464844 402.105469 L 419.929688 405.851562 C 369.460938 447.84375 317.414062 491.023438 228.695312 510.144531 C 163.4375 524.144531 90.492188 525.128906 5.914062 512.707031 L 5.71875 514.679688 C 45.34375 520.59375 82.410156 523.550781 117.304688 523.550781 Z M 117.304688 523.550781 "
                  fill-opacity="1" fill-rule="nonzero"/>
                <path fill="#cbb79e"
                  d="M 145.890625 521.972656 C 174.082031 521.972656 200.894531 520.003906 226.527344 516.257812 C 321.550781 502.257812 380.894531 460.859375 429.195312 423.003906 C 450.882812 406.050781 469.019531 389.488281 484.203125 375.492188 C 488.539062 371.546875 492.480469 367.605469 496.621094 363.859375 C 525.210938 337.046875 549.851562 313.785156 594.015625 293.675781 C 702.25 244.1875 845.578125 260.550781 1019.859375 342.171875 L 1020.648438 340.398438 C 845.777344 258.382812 701.855469 242.019531 593.027344 291.898438 C 548.671875 312.207031 523.828125 335.46875 495.242188 362.480469 C 491.300781 366.226562 487.160156 370.167969 482.820312 374.113281 C 467.640625 388.109375 449.699219 404.472656 428.015625 421.425781 C 377.742188 460.660156 320.765625 500.289062 226.132812 514.285156 C 160.875 523.945312 88.914062 521.382812 5.914062 506.398438 L 5.519531 508.371094 C 56.1875 517.441406 102.714844 521.972656 145.890625 521.972656 Z M 145.890625 521.972656 "
                  fill-opacity="1" fill-rule="nonzero"/>
                <path fill="#cbb79e"
                  d="M 178.027344 522.171875 C 193.800781 522.171875 209.175781 521.578125 223.964844 520.398438 C 304.007812 513.695312 368.472656 489.839844 432.941406 442.523438 C 456.402344 425.371094 474.148438 408.613281 486.960938 395.796875 C 493.269531 389.6875 499.183594 383.378906 504.902344 377.464844 C 529.152344 352.621094 551.824219 328.964844 591.253906 308.65625 C 696.335938 254.636719 840.648438 269.226562 1019.664062 351.832031 L 1020.453125 350.058594 C 938.632812 312.207031 863.519531 288.351562 797.078125 279.085938 C 717.429688 268.042969 648.035156 277.308594 590.464844 307.082031 C 550.839844 327.386719 527.96875 351.042969 503.71875 376.28125 C 498.003906 382.195312 492.085938 388.304688 485.777344 394.417969 C 472.964844 407.035156 455.417969 423.792969 431.957031 440.945312 C 367.882812 488.066406 303.613281 511.917969 223.964844 518.425781 C 159.890625 523.75 86.746094 517.441406 6.308594 500.089844 L 5.914062 502.0625 C 67.820312 515.46875 125.585938 522.171875 178.027344 522.171875 Z M 178.027344 522.171875 "
                  fill-opacity="1" fill-rule="nonzero"/>
                <path fill="#cbb79e"
                  d="M 210.558594 524.539062 C 231.257812 524.539062 251.167969 523.355469 270.292969 521.1875 C 333.972656 513.695312 389.964844 493.78125 436.492188 461.84375 C 470.203125 438.777344 490.707031 415.316406 510.421875 392.644531 C 532.109375 367.800781 552.417969 344.539062 588.296875 323.839844 C 690.421875 264.890625 835.328125 277.507812 1019.070312 361.296875 L 1019.859375 359.523438 C 935.675781 321.078125 858.984375 297.417969 791.953125 288.941406 C 711.910156 278.886719 643.105469 289.929688 587.3125 322.261719 C 551.234375 343.160156 530.730469 366.621094 509.042969 391.460938 C 489.328125 413.9375 469.019531 437.199219 435.503906 460.265625 C 333.972656 529.859375 189.660156 541.097656 6.507812 493.585938 L 5.914062 495.554688 C 80.632812 514.875 149.046875 524.539062 210.558594 524.539062 Z M 210.558594 524.539062 "
                  fill-opacity="1" fill-rule="nonzero"/>
                <path fill="#cbb79e"
                  d="M 232.046875 498.117188 C 313.667969 498.117188 382.667969 482.542969 438.265625 451.394531 C 472.175781 432.46875 492.875 412.753906 513.183594 393.628906 C 535.265625 372.730469 556.160156 353.015625 592.242188 335.863281 C 697.320312 285.589844 841.042969 297.027344 1019.664062 369.773438 L 1020.453125 368 C 841.4375 294.855469 696.925781 283.421875 591.253906 333.894531 C 554.980469 351.242188 533.882812 371.152344 511.804688 392.050781 C 491.695312 410.980469 470.992188 430.695312 437.28125 449.421875 C 336.535156 505.808594 191.628906 510.933594 6.507812 464.605469 L 6.113281 466.574219 C 89.703125 487.671875 165.015625 498.117188 232.046875 498.117188 Z M 232.046875 498.117188 "
                  fill-opacity="1" fill-rule="nonzero"/>
                <path fill="#cbb79e"
                  d="M 260.832031 472.6875 C 331.214844 472.6875 390.949219 462.039062 439.84375 440.75 C 473.949219 425.960938 495.242188 409.796875 515.941406 394.21875 C 538.617188 377.265625 559.90625 361.296875 595.789062 347.496094 C 731.035156 296.039062 901.175781 335.667969 1020.058594 378.054688 L 1020.648438 376.28125 C 901.371094 333.695312 730.835938 293.871094 595 345.722656 C 558.726562 359.523438 537.234375 375.6875 514.5625 392.644531 C 493.863281 408.21875 472.570312 424.1875 438.855469 438.972656 C 339.296875 482.347656 193.800781 481.359375 6.507812 435.820312 L 6.113281 437.789062 C 102.125 461.054688 187.097656 472.6875 260.832031 472.6875 Z M 260.832031 472.6875 "
                  fill-opacity="1" fill-rule="nonzero"/>
                <path fill="#cbb79e"
                  d="M 298.683594 448.832031 C 354.082031 448.832031 401.597656 442.71875 441.421875 430.300781 C 475.921875 419.652344 498.003906 407.035156 519.292969 395.007812 C 542.164062 381.996094 563.851562 369.773438 599.535156 359.523438 C 739.90625 319.304688 905.90625 352.226562 1020.453125 386.730469 L 1021.042969 384.757812 C 945.929688 362.085938 873.378906 347.691406 805.753906 341.976562 C 727.683594 335.273438 658.089844 340.59375 598.945312 357.550781 C 563.0625 367.800781 541.179688 380.222656 518.113281 393.234375 C 496.820312 405.261719 474.9375 417.679688 440.632812 428.328125 C 343.042969 458.6875 196.953125 451.589844 6.507812 407.035156 L 6.113281 409.007812 C 119.671875 435.425781 217.457031 448.832031 298.683594 448.832031 Z M 298.683594 448.832031 "
                  fill-opacity="1" fill-rule="nonzero"/>
                <path fill="#cbb79e"
                  d="M 347.378906 427.539062 C 383.261719 427.539062 415.003906 424.976562 442.601562 419.652344 C 477.894531 412.949219 500.960938 404.078125 523.238281 395.402344 C 545.320312 386.925781 568.1875 378.054688 602.886719 371.152344 C 757.847656 340.988281 931.140625 373.125 1020.648438 395.007812 L 1021.042969 393.039062 C 931.339844 371.152344 757.847656 339.019531 602.492188 369.183594 C 567.398438 376.082031 544.53125 384.953125 522.449219 393.433594 C 500.171875 402.105469 477.300781 410.980469 442.207031 417.484375 C 346.789062 435.425781 204.246094 422.414062 6.308594 377.855469 L 5.914062 379.828125 C 146.878906 411.765625 259.648438 427.539062 347.378906 427.539062 Z M 347.378906 427.539062 "
                  fill-opacity="1" fill-rule="nonzero"/>
                <path fill="#cbb79e"
                  d="M 409.679688 410.191406 C 421.902344 410.191406 433.535156 409.796875 444.378906 409.203125 C 481.640625 406.839844 505.296875 401.710938 530.335938 396.191406 C 551.824219 391.460938 574.300781 386.730469 607.027344 383.179688 C 728.867188 370.5625 879.882812 377.855469 1021.4375 403.683594 L 1021.832031 401.710938 C 880.082031 376.082031 728.867188 368.589844 606.828125 381.207031 C 573.90625 384.558594 551.628906 389.488281 529.941406 394.222656 C 505.101562 399.542969 481.441406 404.667969 444.378906 407.234375 C 354.871094 413.148438 215.878906 394.8125 6.703125 349.269531 L 6.308594 351.242188 C 190.054688 391.261719 319.976562 410.191406 409.679688 410.191406 Z M 409.679688 410.191406 "
                  fill-opacity="1" fill-rule="nonzero"/>
                <path fill="#cbb79e"
                  d="M 1021.632812 411.964844 L 1021.832031 409.992188 C 906.695312 396.785156 756.664062 390.671875 610.378906 393.039062 C 583.367188 393.433594 562.667969 394.613281 544.53125 395.796875 C 514.5625 397.570312 488.738281 399.148438 445.757812 396.585938 C 359.800781 391.65625 230.273438 367.210938 6.507812 320.488281 L 6.113281 322.457031 C 230.074219 369.183594 359.601562 393.828125 445.757812 398.558594 C 488.734375 400.925781 514.761719 399.542969 544.726562 397.769531 C 562.863281 396.785156 583.566406 395.402344 610.574219 395.007812 C 756.664062 392.644531 906.5 398.753906 1021.632812 411.964844 Z M 1021.632812 411.964844 "
                  fill-opacity="1" fill-rule="nonzero"/>
                <path fill="#cbb79e"
                  d="M 1022.226562 420.441406 L 1022.226562 418.46875 C 976.09375 416.5 925.820312 415.511719 872.390625 414.328125 C 786.828125 412.554688 698.308594 410.78125 614.320312 404.867188 L 607.421875 404.472656 C 541.574219 399.9375 514.167969 397.964844 447.53125 386.136719 C 405.539062 378.644531 352.703125 366.816406 285.867188 351.832031 C 211.738281 335.074219 119.472656 314.375 6.507812 291.703125 L 6.113281 293.675781 C 119.078125 316.347656 211.34375 337.046875 285.472656 353.804688 C 352.308594 368.789062 405.144531 380.816406 447.335938 388.304688 C 514.167969 400.136719 541.375 402.105469 607.421875 406.640625 L 614.320312 407.035156 C 698.308594 412.949219 786.828125 414.722656 872.589844 416.5 C 925.621094 417.484375 976.09375 418.46875 1022.226562 420.441406 Z M 1022.226562 420.441406 "
                  fill-opacity="1" fill-rule="nonzero"/>
                <path fill="#cbb79e"
                  d="M 842.03125 433.257812 C 898.019531 433.257812 952.039062 431.285156 1000.738281 429.511719 C 1008.226562 429.3125 1015.523438 428.917969 1022.621094 428.722656 L 1022.621094 426.75 C 1015.523438 426.949219 1008.226562 427.34375 1000.738281 427.539062 C 888.359375 431.480469 748.382812 436.609375 618.265625 416.5 C 553.597656 406.445312 523.238281 397.375 467.839844 380.816406 C 461.921875 379.039062 455.8125 377.265625 449.304688 375.292969 C 439.449219 372.335938 429 369.183594 417.761719 365.832031 C 329.636719 339.214844 196.757812 298.996094 6.507812 262.523438 L 6.113281 264.496094 C 196.164062 300.96875 329.242188 341.1875 417.171875 367.800781 C 428.210938 371.152344 438.855469 374.308594 448.714844 377.265625 C 455.21875 379.238281 461.332031 381.011719 467.246094 382.785156 C 522.644531 399.347656 553.007812 408.613281 617.871094 418.46875 C 691.800781 430.101562 768.691406 433.257812 842.03125 433.257812 Z M 842.03125 433.257812 "
                  fill-opacity="1" fill-rule="nonzero"/>
                <path fill="#cbb79e"
                  d="M 818.964844 451.394531 C 889.9375 451.394531 959.335938 444.886719 1023.015625 437.398438 L 1022.816406 435.425781 C 900.386719 450.015625 757.058594 460.464844 622.011719 428.722656 C 567.203125 415.710938 536.644531 402.304688 494.257812 383.773438 C 480.851562 377.855469 467.246094 371.941406 451.082031 365.042969 C 352.898438 324.035156 213.515625 271.988281 6.507812 233.9375 L 6.113281 235.910156 C 212.921875 273.761719 352.109375 325.808594 450.292969 366.816406 C 466.457031 373.519531 480.257812 379.632812 493.46875 385.347656 C 535.855469 403.882812 566.609375 417.484375 621.617188 430.300781 C 686.476562 445.875 753.3125 451.394531 818.964844 451.394531 Z M 818.964844 451.394531 "
                  fill-opacity="1" fill-rule="nonzero"/>
                <path fill="#cbb79e"
                  d="M 815.019531 469.925781 C 894.273438 469.925781 966.828125 457.507812 1023.410156 445.675781 L 1023.015625 443.707031 C 923.058594 464.605469 773.226562 487.078125 625.757812 440.355469 C 573.90625 423.792969 542.753906 405.851562 503.324219 382.984375 C 487.75 373.914062 471.78125 364.648438 452.460938 354.394531 C 320.171875 283.226562 174.085938 234.332031 6.308594 204.957031 L 5.914062 206.925781 C 173.691406 236.304688 319.382812 285 451.476562 356.171875 C 470.597656 366.421875 486.765625 375.886719 502.140625 384.757812 C 541.574219 407.625 572.722656 425.765625 624.96875 442.324219 C 689.4375 462.632812 754.101562 469.925781 815.019531 469.925781 Z M 815.019531 469.925781 "
                  fill-opacity="1" fill-rule="nonzero"/>
                <path fill="#cbb79e"
                  d="M 814.230469 488.261719 C 880.277344 488.261719 950.265625 476.828125 1023.804688 454.15625 L 1023.210938 452.183594 C 876.335938 497.527344 744.046875 497.527344 629.5 452.183594 C 578.636719 432.074219 546.105469 408.613281 508.453125 381.601562 C 491.890625 369.773438 474.738281 357.355469 454.234375 343.949219 C 328.058594 261.144531 177.4375 204.757812 6.308594 176.171875 L 5.914062 178.144531 C 176.84375 206.535156 327.269531 262.917969 453.050781 345.523438 C 473.554688 358.929688 490.511719 371.351562 507.070312 383.179688 C 544.925781 410.386719 577.453125 433.847656 628.515625 454.15625 C 686.28125 476.828125 748.382812 488.261719 814.230469 488.261719 Z M 814.230469 488.261719 "
                  fill-opacity="1" fill-rule="nonzero"/>
              </g>
            </g>
          </g>
        </g>
      </g>
    </g>
  </g>
</svg>