<svg xmlns="http://www.w3.org/2000/svg" xmlns:xlink="http://www.w3.org/1999/xlink" width="1366" zoomAndPan="magnify" viewBox="0 0 1024.5 576" height="768" preserveAspectRatio="xMidYMid meet" version="1.0"><defs><clipPath id="1aec54a248"><path d="M 686 0.140625 L 931 0.140625 L 931 575.859375 L 686 575.859375 Z M 686 0.140625 " clip-rule="nonzero"/></clipPath><clipPath id="fa23c5af37"><path d="M 889.601562 -204.019531 L 1115.066406 562.625 L 562.738281 725.0625 L 337.273438 -41.582031 Z M 889.601562 -204.019531 " clip-rule="nonzero"/></clipPath><clipPath id="9345b0e37c"><path d="M 889.601562 -204.019531 L 1115.066406 562.625 L 562.738281 725.0625 L 337.273438 -41.582031 Z M 889.601562 -204.019531 " clip-rule="nonzero"/></clipPath><clipPath id="857fafcd87"><path d="M 685 0.140625 L 922 0.140625 L 922 575.859375 L 685 575.859375 Z M 685 0.140625 " clip-rule="nonzero"/></clipPath><clipPath id="4ceb376aea"><path d="M 889.601562 -204.019531 L 1115.066406 562.625 L 562.738281 725.0625 L 337.273438 -41.582031 Z M 889.601562 -204.019531 " clip-rule="nonzero"/></clipPath><clipPath id="eb1a18faa8"><path d="M 889.601562 -204.019531 L 1115.066406 562.625 L 562.738281 725.0625 L 337.273438 -41.582031 Z M 889.601562 -204.019531 " clip-rule="nonzero"/></clipPath><clipPath id="b5fde09fa8"><path d="M 682 0.140625 L 913 0.140625 L 913 575.859375 L 682 575.859375 Z M 682 0.140625 " clip-rule="nonzero"/></clipPath><clipPath id="40d3b9d2df"><path d="M 889.601562 -204.019531 L 1115.066406 562.625 L 562.738281 725.0625 L 337.273438 -41.582031 Z M 889.601562 -204.019531 " clip-rule="nonzero"/></clipPath><clipPath id="0f4a9c5878"><path d="M 889.601562 -204.019531 L 1115.066406 562.625 L 562.738281 725.0625 L 337.273438 -41.582031 Z M 889.601562 -204.019531 " clip-rule="nonzero"/></clipPath><clipPath id="da036616bc"><path d="M 680 0.140625 L 904 0.140625 L 904 575.859375 L 680 575.859375 Z M 680 0.140625 " clip-rule="nonzero"/></clipPath><clipPath id="fd852033c7"><path d="M 889.601562 -204.019531 L 1115.066406 562.625 L 562.738281 725.0625 L 337.273438 -41.582031 Z M 889.601562 -204.019531 " clip-rule="nonzero"/></clipPath><clipPath id="db3a75c246"><path d="M 889.601562 -204.019531 L 1115.066406 562.625 L 562.738281 725.0625 L 337.273438 -41.582031 Z M 889.601562 -204.019531 " clip-rule="nonzero"/></clipPath><clipPath id="8e561f2b95"><path d="M 676 0.140625 L 896 0.140625 L 896 575.859375 L 676 575.859375 Z M 676 0.140625 " clip-rule="nonzero"/></clipPath><clipPath id="5b4bb3eed6"><path d="M 889.601562 -204.019531 L 1115.066406 562.625 L 562.738281 725.0625 L 337.273438 -41.582031 Z M 889.601562 -204.019531 " clip-rule="nonzero"/></clipPath><clipPath id="3d535b3766"><path d="M 889.601562 -204.019531 L 1115.066406 562.625 L 562.738281 725.0625 L 337.273438 -41.582031 Z M 889.601562 -204.019531 " clip-rule="nonzero"/></clipPath><clipPath id="45144abb83"><path d="M 673 0.140625 L 889 0.140625 L 889 575.859375 L 673 575.859375 Z M 673 0.140625 " clip-rule="nonzero"/></clipPath><clipPath id="b156fea5b3"><path d="M 889.601562 -204.019531 L 1115.066406 562.625 L 562.738281 725.0625 L 337.273438 -41.582031 Z M 889.601562 -204.019531 " clip-rule="nonzero"/></clipPath><clipPath id="b5b2fdf377"><path d="M 889.601562 -204.019531 L 1115.066406 562.625 L 562.738281 725.0625 L 337.273438 -41.582031 Z M 889.601562 -204.019531 " clip-rule="nonzero"/></clipPath><clipPath id="24ad8ea1b4"><path d="M 668 0.140625 L 883 0.140625 L 883 575.859375 L 668 575.859375 Z M 668 0.140625 " clip-rule="nonzero"/></clipPath><clipPath id="d5c4df8e03"><path d="M 889.601562 -204.019531 L 1115.066406 562.625 L 562.738281 725.0625 L 337.273438 -41.582031 Z M 889.601562 -204.019531 " clip-rule="nonzero"/></clipPath><clipPath id="f3fa7e764d"><path d="M 889.601562 -204.019531 L 1115.066406 562.625 L 562.738281 725.0625 L 337.273438 -41.582031 Z M 889.601562 -204.019531 " clip-rule="nonzero"/></clipPath><clipPath id="40aa27c2ec"><path d="M 664 0.140625 L 878 0.140625 L 878 575.859375 L 664 575.859375 Z M 664 0.140625 " clip-rule="nonzero"/></clipPath><clipPath id="2abf7f4e0f"><path d="M 889.601562 -204.019531 L 1115.066406 562.625 L 562.738281 725.0625 L 337.273438 -41.582031 Z M 889.601562 -204.019531 " clip-rule="nonzero"/></clipPath><clipPath id="066a2f40d6"><path d="M 889.601562 -204.019531 L 1115.066406 562.625 L 562.738281 725.0625 L 337.273438 -41.582031 Z M 889.601562 -204.019531 " clip-rule="nonzero"/></clipPath><clipPath id="38473f4ddb"><path d="M 658 0.140625 L 875 0.140625 L 875 575.859375 L 658 575.859375 Z M 658 0.140625 " clip-rule="nonzero"/></clipPath><clipPath id="862fc07566"><path d="M 889.601562 -204.019531 L 1115.066406 562.625 L 562.738281 725.0625 L 337.273438 -41.582031 Z M 889.601562 -204.019531 " clip-rule="nonzero"/></clipPath><clipPath id="7f6d794937"><path d="M 889.601562 -204.019531 L 1115.066406 562.625 L 562.738281 725.0625 L 337.273438 -41.582031 Z M 889.601562 -204.019531 " clip-rule="nonzero"/></clipPath><clipPath id="771ce7f2ce"><path d="M 653 0.140625 L 875 0.140625 L 875 575.859375 L 653 575.859375 Z M 653 0.140625 " clip-rule="nonzero"/></clipPath><clipPath id="6c2a69310e"><path d="M 889.601562 -204.019531 L 1115.066406 562.625 L 562.738281 725.0625 L 337.273438 -41.582031 Z M 889.601562 -204.019531 " clip-rule="nonzero"/></clipPath><clipPath id="d345f8fffd"><path d="M 889.601562 -204.019531 L 1115.066406 562.625 L 562.738281 725.0625 L 337.273438 -41.582031 Z M 889.601562 -204.019531 " clip-rule="nonzero"/></clipPath><clipPath id="ca32f02c78"><path d="M 647 0.140625 L 880 0.140625 L 880 575.859375 L 647 575.859375 Z M 647 0.140625 " clip-rule="nonzero"/></clipPath><clipPath id="63c339f60c"><path d="M 889.601562 -204.019531 L 1115.066406 562.625 L 562.738281 725.0625 L 337.273438 -41.582031 Z M 889.601562 -204.019531 " clip-rule="nonzero"/></clipPath><clipPath id="ae296c9ad9"><path d="M 889.601562 -204.019531 L 1115.066406 562.625 L 562.738281 725.0625 L 337.273438 -41.582031 Z M 889.601562 -204.019531 " clip-rule="nonzero"/></clipPath><clipPath id="240556544c"><path d="M 640 0.140625 L 888 0.140625 L 888 575.859375 L 640 575.859375 Z M 640 0.140625 " clip-rule="nonzero"/></clipPath><clipPath id="facffd4458"><path d="M 889.601562 -204.019531 L 1115.066406 562.625 L 562.738281 725.0625 L 337.273438 -41.582031 Z M 889.601562 -204.019531 " clip-rule="nonzero"/></clipPath><clipPath id="74bd6a07c8"><path d="M 889.601562 -204.019531 L 1115.066406 562.625 L 562.738281 725.0625 L 337.273438 -41.582031 Z M 889.601562 -204.019531 " clip-rule="nonzero"/></clipPath><clipPath id="a63136bad6"><path d="M 632 0.140625 L 875 0.140625 L 875 575.859375 L 632 575.859375 Z M 632 0.140625 " clip-rule="nonzero"/></clipPath><clipPath id="7e7f02954a"><path d="M 889.601562 -204.019531 L 1115.066406 562.625 L 562.738281 725.0625 L 337.273438 -41.582031 Z M 889.601562 -204.019531 " clip-rule="nonzero"/></clipPath><clipPath id="6ca381ab85"><path d="M 889.601562 -204.019531 L 1115.066406 562.625 L 562.738281 725.0625 L 337.273438 -41.582031 Z M 889.601562 -204.019531 " clip-rule="nonzero"/></clipPath><clipPath id="7d2837d1da"><path d="M 625 0.140625 L 863 0.140625 L 863 575.859375 L 625 575.859375 Z M 625 0.140625 " clip-rule="nonzero"/></clipPath><clipPath id="65d56dad54"><path d="M 889.601562 -204.019531 L 1115.066406 562.625 L 562.738281 725.0625 L 337.273438 -41.582031 Z M 889.601562 -204.019531 " clip-rule="nonzero"/></clipPath><clipPath id="841e837c24"><path d="M 889.601562 -204.019531 L 1115.066406 562.625 L 562.738281 725.0625 L 337.273438 -41.582031 Z M 889.601562 -204.019531 " clip-rule="nonzero"/></clipPath><clipPath id="c792905b37"><path d="M 617 0.140625 L 849 0.140625 L 849 575.859375 L 617 575.859375 Z M 617 0.140625 " clip-rule="nonzero"/></clipPath><clipPath id="f166967ae0"><path d="M 889.601562 -204.019531 L 1115.066406 562.625 L 562.738281 725.0625 L 337.273438 -41.582031 Z M 889.601562 -204.019531 " clip-rule="nonzero"/></clipPath><clipPath id="0995870507"><path d="M 889.601562 -204.019531 L 1115.066406 562.625 L 562.738281 725.0625 L 337.273438 -41.582031 Z M 889.601562 -204.019531 " clip-rule="nonzero"/></clipPath><clipPath id="17dd26823f"><path d="M 609 0.140625 L 837 0.140625 L 837 575.859375 L 609 575.859375 Z M 609 0.140625 " clip-rule="nonzero"/></clipPath><clipPath id="0500ecbb03"><path d="M 889.601562 -204.019531 L 1115.066406 562.625 L 562.738281 725.0625 L 337.273438 -41.582031 Z M 889.601562 -204.019531 " clip-rule="nonzero"/></clipPath><clipPath id="dcb1daf2f0"><path d="M 889.601562 -204.019531 L 1115.066406 562.625 L 562.738281 725.0625 L 337.273438 -41.582031 Z M 889.601562 -204.019531 " clip-rule="nonzero"/></clipPath><clipPath id="1981093051"><path d="M 601 0.140625 L 824 0.140625 L 824 575.859375 L 601 575.859375 Z M 601 0.140625 " clip-rule="nonzero"/></clipPath><clipPath id="ba7042e3c9"><path d="M 889.601562 -204.019531 L 1115.066406 562.625 L 562.738281 725.0625 L 337.273438 -41.582031 Z M 889.601562 -204.019531 " clip-rule="nonzero"/></clipPath><clipPath id="be69548ee6"><path d="M 889.601562 -204.019531 L 1115.066406 562.625 L 562.738281 725.0625 L 337.273438 -41.582031 Z M 889.601562 -204.019531 " clip-rule="nonzero"/></clipPath><clipPath id="24b235c2db"><path d="M 593 0.140625 L 811 0.140625 L 811 575.859375 L 593 575.859375 Z M 593 0.140625 " clip-rule="nonzero"/></clipPath><clipPath id="aef2a9a6c4"><path d="M 889.601562 -204.019531 L 1115.066406 562.625 L 562.738281 725.0625 L 337.273438 -41.582031 Z M 889.601562 -204.019531 " clip-rule="nonzero"/></clipPath><clipPath id="078c36b6b7"><path d="M 889.601562 -204.019531 L 1115.066406 562.625 L 562.738281 725.0625 L 337.273438 -41.582031 Z M 889.601562 -204.019531 " clip-rule="nonzero"/></clipPath><clipPath id="df7eaa734e"><path d="M 584 0.140625 L 799 0.140625 L 799 575.859375 L 584 575.859375 Z M 584 0.140625 " clip-rule="nonzero"/></clipPath><clipPath id="9258431f38"><path d="M 889.601562 -204.019531 L 1115.066406 562.625 L 562.738281 725.0625 L 337.273438 -41.582031 Z M 889.601562 -204.019531 " clip-rule="nonzero"/></clipPath><clipPath id="cfe0b8c903"><path d="M 889.601562 -204.019531 L 1115.066406 562.625 L 562.738281 725.0625 L 337.273438 -41.582031 Z M 889.601562 -204.019531 " clip-rule="nonzero"/></clipPath><clipPath id="407d559bfa"><path d="M 576 0.140625 L 786 0.140625 L 786 575.859375 L 576 575.859375 Z M 576 0.140625 " clip-rule="nonzero"/></clipPath><clipPath id="99fd114be4"><path d="M 889.601562 -204.019531 L 1115.066406 562.625 L 562.738281 725.0625 L 337.273438 -41.582031 Z M 889.601562 -204.019531 " clip-rule="nonzero"/></clipPath><clipPath id="d0baa1b8e1"><path d="M 889.601562 -204.019531 L 1115.066406 562.625 L 562.738281 725.0625 L 337.273438 -41.582031 Z M 889.601562 -204.019531 " clip-rule="nonzero"/></clipPath><clipPath id="3343c0de3e"><path d="M 567 0.140625 L 773 0.140625 L 773 575.859375 L 567 575.859375 Z M 567 0.140625 " clip-rule="nonzero"/></clipPath><clipPath id="d56163f4cc"><path d="M 889.601562 -204.019531 L 1115.066406 562.625 L 562.738281 725.0625 L 337.273438 -41.582031 Z M 889.601562 -204.019531 " clip-rule="nonzero"/></clipPath><clipPath id="ab5bf98434"><path d="M 889.601562 -204.019531 L 1115.066406 562.625 L 562.738281 725.0625 L 337.273438 -41.582031 Z M 889.601562 -204.019531 " clip-rule="nonzero"/></clipPath><clipPath id="14b9f966fb"><path d="M 559 0.140625 L 760 0.140625 L 760 575.859375 L 559 575.859375 Z M 559 0.140625 " clip-rule="nonzero"/></clipPath><clipPath id="19418d257f"><path d="M 889.601562 -204.019531 L 1115.066406 562.625 L 562.738281 725.0625 L 337.273438 -41.582031 Z M 889.601562 -204.019531 " clip-rule="nonzero"/></clipPath><clipPath id="dce0800f4a"><path d="M 889.601562 -204.019531 L 1115.066406 562.625 L 562.738281 725.0625 L 337.273438 -41.582031 Z M 889.601562 -204.019531 " clip-rule="nonzero"/></clipPath><clipPath id="f8a29bc91a"><path d="M 550 0.140625 L 748 0.140625 L 748 575.859375 L 550 575.859375 Z M 550 0.140625 " clip-rule="nonzero"/></clipPath><clipPath id="7989c034c7"><path d="M 889.601562 -204.019531 L 1115.066406 562.625 L 562.738281 725.0625 L 337.273438 -41.582031 Z M 889.601562 -204.019531 " clip-rule="nonzero"/></clipPath><clipPath id="07f4c65918"><path d="M 889.601562 -204.019531 L 1115.066406 562.625 L 562.738281 725.0625 L 337.273438 -41.582031 Z M 889.601562 -204.019531 " clip-rule="nonzero"/></clipPath><clipPath id="b291955176"><path d="M 552 0.140625 L 734 0.140625 L 734 575.859375 L 552 575.859375 Z M 552 0.140625 " clip-rule="nonzero"/></clipPath><clipPath id="af4ff30fd7"><path d="M 889.601562 -204.019531 L 1115.066406 562.625 L 562.738281 725.0625 L 337.273438 -41.582031 Z M 889.601562 -204.019531 " clip-rule="nonzero"/></clipPath><clipPath id="ba02060ff1"><path d="M 889.601562 -204.019531 L 1115.066406 562.625 L 562.738281 725.0625 L 337.273438 -41.582031 Z M 889.601562 -204.019531 " clip-rule="nonzero"/></clipPath><clipPath id="abf8901e58"><path d="M 554 0.140625 L 719 0.140625 L 719 575.859375 L 554 575.859375 Z M 554 0.140625 " clip-rule="nonzero"/></clipPath><clipPath id="30102bce0e"><path d="M 889.601562 -204.019531 L 1115.066406 562.625 L 562.738281 725.0625 L 337.273438 -41.582031 Z M 889.601562 -204.019531 " clip-rule="nonzero"/></clipPath><clipPath id="4c68204cdf"><path d="M 889.601562 -204.019531 L 1115.066406 562.625 L 562.738281 725.0625 L 337.273438 -41.582031 Z M 889.601562 -204.019531 " clip-rule="nonzero"/></clipPath><clipPath id="982a3d6494"><path d="M 548 0.140625 L 706 0.140625 L 706 575.859375 L 548 575.859375 Z M 548 0.140625 " clip-rule="nonzero"/></clipPath><clipPath id="e95bb0bd5b"><path d="M 889.601562 -204.019531 L 1115.066406 562.625 L 562.738281 725.0625 L 337.273438 -41.582031 Z M 889.601562 -204.019531 " clip-rule="nonzero"/></clipPath><clipPath id="21e342f93f"><path d="M 889.601562 -204.019531 L 1115.066406 562.625 L 562.738281 725.0625 L 337.273438 -41.582031 Z M 889.601562 -204.019531 " clip-rule="nonzero"/></clipPath><clipPath id="b9132df909"><path d="M 541 0.140625 L 693 0.140625 L 693 575.859375 L 541 575.859375 Z M 541 0.140625 " clip-rule="nonzero"/></clipPath><clipPath id="3177039ae8"><path d="M 889.601562 -204.019531 L 1115.066406 562.625 L 562.738281 725.0625 L 337.273438 -41.582031 Z M 889.601562 -204.019531 " clip-rule="nonzero"/></clipPath><clipPath id="ae4d11ea38"><path d="M 889.601562 -204.019531 L 1115.066406 562.625 L 562.738281 725.0625 L 337.273438 -41.582031 Z M 889.601562 -204.019531 " clip-rule="nonzero"/></clipPath><clipPath id="fef21a20fb"><path d="M 534 0.140625 L 681 0.140625 L 681 575.859375 L 534 575.859375 Z M 534 0.140625 " clip-rule="nonzero"/></clipPath><clipPath id="c6765d7b5a"><path d="M 889.601562 -204.019531 L 1115.066406 562.625 L 562.738281 725.0625 L 337.273438 -41.582031 Z M 889.601562 -204.019531 " clip-rule="nonzero"/></clipPath><clipPath id="32cc7398db"><path d="M 889.601562 -204.019531 L 1115.066406 562.625 L 562.738281 725.0625 L 337.273438 -41.582031 Z M 889.601562 -204.019531 " clip-rule="nonzero"/></clipPath><clipPath id="d7f5102402"><path d="M 527 0.140625 L 670 0.140625 L 670 575.859375 L 527 575.859375 Z M 527 0.140625 " clip-rule="nonzero"/></clipPath><clipPath id="bd9e4316d0"><path d="M 889.601562 -204.019531 L 1115.066406 562.625 L 562.738281 725.0625 L 337.273438 -41.582031 Z M 889.601562 -204.019531 " clip-rule="nonzero"/></clipPath><clipPath id="a38265f16d"><path d="M 889.601562 -204.019531 L 1115.066406 562.625 L 562.738281 725.0625 L 337.273438 -41.582031 Z M 889.601562 -204.019531 " clip-rule="nonzero"/></clipPath><clipPath id="942bd1fca6"><path d="M 520 0.140625 L 660 0.140625 L 660 575.859375 L 520 575.859375 Z M 520 0.140625 " clip-rule="nonzero"/></clipPath><clipPath id="1904f4e8a2"><path d="M 889.601562 -204.019531 L 1115.066406 562.625 L 562.738281 725.0625 L 337.273438 -41.582031 Z M 889.601562 -204.019531 " clip-rule="nonzero"/></clipPath><clipPath id="cbbf6f789b"><path d="M 889.601562 -204.019531 L 1115.066406 562.625 L 562.738281 725.0625 L 337.273438 -41.582031 Z M 889.601562 -204.019531 " clip-rule="nonzero"/></clipPath><clipPath id="158dc787c1"><path d="M 513 0.140625 L 650 0.140625 L 650 575.859375 L 513 575.859375 Z M 513 0.140625 " clip-rule="nonzero"/></clipPath><clipPath id="43d1cd5e25"><path d="M 889.601562 -204.019531 L 1115.066406 562.625 L 562.738281 725.0625 L 337.273438 -41.582031 Z M 889.601562 -204.019531 " clip-rule="nonzero"/></clipPath><clipPath id="77624de6d2"><path d="M 889.601562 -204.019531 L 1115.066406 562.625 L 562.738281 725.0625 L 337.273438 -41.582031 Z M 889.601562 -204.019531 " clip-rule="nonzero"/></clipPath><clipPath id="eaaa5472d0"><path d="M 506 0.140625 L 641 0.140625 L 641 575.859375 L 506 575.859375 Z M 506 0.140625 " clip-rule="nonzero"/></clipPath><clipPath id="ecf4caf136"><path d="M 889.601562 -204.019531 L 1115.066406 562.625 L 562.738281 725.0625 L 337.273438 -41.582031 Z M 889.601562 -204.019531 " clip-rule="nonzero"/></clipPath><clipPath id="e2e0b8d465"><path d="M 889.601562 -204.019531 L 1115.066406 562.625 L 562.738281 725.0625 L 337.273438 -41.582031 Z M 889.601562 -204.019531 " clip-rule="nonzero"/></clipPath><clipPath id="650129f804"><path d="M 499 0.140625 L 632 0.140625 L 632 575.859375 L 499 575.859375 Z M 499 0.140625 " clip-rule="nonzero"/></clipPath><clipPath id="bcc283acb5"><path d="M 889.601562 -204.019531 L 1115.066406 562.625 L 562.738281 725.0625 L 337.273438 -41.582031 Z M 889.601562 -204.019531 " clip-rule="nonzero"/></clipPath><clipPath id="5dbb56ab50"><path d="M 889.601562 -204.019531 L 1115.066406 562.625 L 562.738281 725.0625 L 337.273438 -41.582031 Z M 889.601562 -204.019531 " clip-rule="nonzero"/></clipPath><clipPath id="1449ee9516"><path d="M 492 0.140625 L 623 0.140625 L 623 575.859375 L 492 575.859375 Z M 492 0.140625 " clip-rule="nonzero"/></clipPath><clipPath id="3ea6b72902"><path d="M 889.601562 -204.019531 L 1115.066406 562.625 L 562.738281 725.0625 L 337.273438 -41.582031 Z M 889.601562 -204.019531 " clip-rule="nonzero"/></clipPath><clipPath id="610eec6f89"><path d="M 889.601562 -204.019531 L 1115.066406 562.625 L 562.738281 725.0625 L 337.273438 -41.582031 Z M 889.601562 -204.019531 " clip-rule="nonzero"/></clipPath><clipPath id="e1e7e3ae4a"><path d="M 485 0.140625 L 638 0.140625 L 638 575.859375 L 485 575.859375 Z M 485 0.140625 " clip-rule="nonzero"/></clipPath><clipPath id="9c758fed7a"><path d="M 889.601562 -204.019531 L 1115.066406 562.625 L 562.738281 725.0625 L 337.273438 -41.582031 Z M 889.601562 -204.019531 " clip-rule="nonzero"/></clipPath><clipPath id="2d1426f7b0"><path d="M 889.601562 -204.019531 L 1115.066406 562.625 L 562.738281 725.0625 L 337.273438 -41.582031 Z M 889.601562 -204.019531 " clip-rule="nonzero"/></clipPath><clipPath id="a2b9228a4c"><path d="M 479 0.140625 L 660 0.140625 L 660 575.859375 L 479 575.859375 Z M 479 0.140625 " clip-rule="nonzero"/></clipPath><clipPath id="dde8c8d212"><path d="M 889.601562 -204.019531 L 1115.066406 562.625 L 562.738281 725.0625 L 337.273438 -41.582031 Z M 889.601562 -204.019531 " clip-rule="nonzero"/></clipPath><clipPath id="ceed595983"><path d="M 889.601562 -204.019531 L 1115.066406 562.625 L 562.738281 725.0625 L 337.273438 -41.582031 Z M 889.601562 -204.019531 " clip-rule="nonzero"/></clipPath><clipPath id="68aaaf047e"><path d="M 472 0.140625 L 681 0.140625 L 681 575.859375 L 472 575.859375 Z M 472 0.140625 " clip-rule="nonzero"/></clipPath><clipPath id="da7df3dd5c"><path d="M 889.601562 -204.019531 L 1115.066406 562.625 L 562.738281 725.0625 L 337.273438 -41.582031 Z M 889.601562 -204.019531 " clip-rule="nonzero"/></clipPath><clipPath id="ca0dfd6424"><path d="M 889.601562 -204.019531 L 1115.066406 562.625 L 562.738281 725.0625 L 337.273438 -41.582031 Z M 889.601562 -204.019531 " clip-rule="nonzero"/></clipPath><clipPath id="aaed3c33ac"><path d="M 466 0.140625 L 703 0.140625 L 703 575.859375 L 466 575.859375 Z M 466 0.140625 " clip-rule="nonzero"/></clipPath><clipPath id="275719c533"><path d="M 889.601562 -204.019531 L 1115.066406 562.625 L 562.738281 725.0625 L 337.273438 -41.582031 Z M 889.601562 -204.019531 " clip-rule="nonzero"/></clipPath><clipPath id="32c4924b01"><path d="M 889.601562 -204.019531 L 1115.066406 562.625 L 562.738281 725.0625 L 337.273438 -41.582031 Z M 889.601562 -204.019531 " clip-rule="nonzero"/></clipPath><clipPath id="cd5156cdec"><path d="M 459 0.140625 L 725 0.140625 L 725 575.859375 L 459 575.859375 Z M 459 0.140625 " clip-rule="nonzero"/></clipPath><clipPath id="9b95c1e84e"><path d="M 889.601562 -204.019531 L 1115.066406 562.625 L 562.738281 725.0625 L 337.273438 -41.582031 Z M 889.601562 -204.019531 " clip-rule="nonzero"/></clipPath><clipPath id="d22a2e42a6"><path d="M 889.601562 -204.019531 L 1115.066406 562.625 L 562.738281 725.0625 L 337.273438 -41.582031 Z M 889.601562 -204.019531 " clip-rule="nonzero"/></clipPath><clipPath id="14a5a0e045"><path d="M 453 0.140625 L 746 0.140625 L 746 575.859375 L 453 575.859375 Z M 453 0.140625 " clip-rule="nonzero"/></clipPath><clipPath id="5a9eb5693b"><path d="M 889.601562 -204.019531 L 1115.066406 562.625 L 562.738281 725.0625 L 337.273438 -41.582031 Z M 889.601562 -204.019531 " clip-rule="nonzero"/></clipPath><clipPath id="4cc57b768e"><path d="M 889.601562 -204.019531 L 1115.066406 562.625 L 562.738281 725.0625 L 337.273438 -41.582031 Z M 889.601562 -204.019531 " clip-rule="nonzero"/></clipPath><clipPath id="8b08a85478"><path d="M 447 0.140625 L 768 0.140625 L 768 575.859375 L 447 575.859375 Z M 447 0.140625 " clip-rule="nonzero"/></clipPath><clipPath id="59bf61c224"><path d="M 889.601562 -204.019531 L 1115.066406 562.625 L 562.738281 725.0625 L 337.273438 -41.582031 Z M 889.601562 -204.019531 " clip-rule="nonzero"/></clipPath><clipPath id="9923bd5978"><path d="M 889.601562 -204.019531 L 1115.066406 562.625 L 562.738281 725.0625 L 337.273438 -41.582031 Z M 889.601562 -204.019531 " clip-rule="nonzero"/></clipPath><clipPath id="eb07330ae6"><path d="M 440 0.140625 L 790 0.140625 L 790 575.859375 L 440 575.859375 Z M 440 0.140625 " clip-rule="nonzero"/></clipPath><clipPath id="56882b488c"><path d="M 889.601562 -204.019531 L 1115.066406 562.625 L 562.738281 725.0625 L 337.273438 -41.582031 Z M 889.601562 -204.019531 " clip-rule="nonzero"/></clipPath><clipPath id="36f5a9eb76"><path d="M 889.601562 -204.019531 L 1115.066406 562.625 L 562.738281 725.0625 L 337.273438 -41.582031 Z M 889.601562 -204.019531 " clip-rule="nonzero"/></clipPath><clipPath id="7d116a6783"><path d="M 434 0.140625 L 811 0.140625 L 811 575.859375 L 434 575.859375 Z M 434 0.140625 " clip-rule="nonzero"/></clipPath><clipPath id="f023a2e82d"><path d="M 889.601562 -204.019531 L 1115.066406 562.625 L 562.738281 725.0625 L 337.273438 -41.582031 Z M 889.601562 -204.019531 " clip-rule="nonzero"/></clipPath><clipPath id="c699381910"><path d="M 889.601562 -204.019531 L 1115.066406 562.625 L 562.738281 725.0625 L 337.273438 -41.582031 Z M 889.601562 -204.019531 " clip-rule="nonzero"/></clipPath><clipPath id="9a1e16c42a"><path d="M 428 0.140625 L 833 0.140625 L 833 575.859375 L 428 575.859375 Z M 428 0.140625 " clip-rule="nonzero"/></clipPath><clipPath id="3d437ff062"><path d="M 889.601562 -204.019531 L 1115.066406 562.625 L 562.738281 725.0625 L 337.273438 -41.582031 Z M 889.601562 -204.019531 " clip-rule="nonzero"/></clipPath><clipPath id="fdc10c464e"><path d="M 889.601562 -204.019531 L 1115.066406 562.625 L 562.738281 725.0625 L 337.273438 -41.582031 Z M 889.601562 -204.019531 " clip-rule="nonzero"/></clipPath><clipPath id="014f0822c1"><path d="M 421 0.140625 L 854 0.140625 L 854 575.859375 L 421 575.859375 Z M 421 0.140625 " clip-rule="nonzero"/></clipPath><clipPath id="7f6115fd6c"><path d="M 889.601562 -204.019531 L 1115.066406 562.625 L 562.738281 725.0625 L 337.273438 -41.582031 Z M 889.601562 -204.019531 " clip-rule="nonzero"/></clipPath><clipPath id="49ccd5f10c"><path d="M 889.601562 -204.019531 L 1115.066406 562.625 L 562.738281 725.0625 L 337.273438 -41.582031 Z M 889.601562 -204.019531 " clip-rule="nonzero"/></clipPath></defs><g clip-path="url(#1aec54a248)"><g clip-path="url(#fa23c5af37)"><g clip-path="url(#9345b0e37c)"><path fill="#cbb79e" d="M 698.414062 506.699219 C 696.417969 499.910156 694.714844 493.03125 693.074219 485.816406 C 665.804688 359.28125 731.898438 250.835938 761.449219 210.070312 C 794.886719 163.992188 827.09375 141.53125 855.597656 121.757812 C 885.554688 100.921875 909.222656 84.339844 921.980469 47.550781 C 943.671875 -14.480469 918.753906 -93.753906 847.773438 -187.867188 L 848.925781 -188.851562 C 920.082031 -94.144531 945.128906 -14.429688 923.316406 48.277344 C 910.351562 85.449219 886.535156 102.078125 856.328125 123.148438 C 827.96875 142.875 795.910156 165.292969 762.578125 211.179688 C 733.132812 251.753906 667.394531 359.777344 694.445312 485.574219 C 711.722656 566.132812 759.859375 622.378906 797.144531 655.359375 L 796.179688 656.445312 C 762.109375 626.210938 718.992188 576.664062 698.414062 506.699219 Z M 698.414062 506.699219 " fill-opacity="1" fill-rule="nonzero"/></g></g></g><g clip-path="url(#857fafcd87)"><g clip-path="url(#4ceb376aea)"><g clip-path="url(#eb1a18faa8)"><path fill="#cbb79e" d="M 696.25 519.523438 C 693.257812 509.339844 690.894531 499.128906 689.082031 488.59375 C 680.164062 437.011719 686.113281 383.621094 706.726562 329.925781 C 723.964844 284.921875 748.007812 248.34375 763.863281 224.273438 C 766.953125 219.515625 769.984375 215.097656 772.363281 211.191406 C 801.363281 165.292969 830.523438 142.285156 856.230469 121.734375 C 883.390625 100.113281 904.839844 83.0625 914.851562 46.757812 C 932.289062 -16.105469 906.109375 -91.480469 835.207031 -183.691406 L 836.363281 -184.671875 C 907.585938 -91.914062 933.894531 -16.09375 916.441406 47.253906 C 906.261719 84.085938 884.667969 101.183594 857.257812 123.035156 C 831.648438 143.398438 802.640625 166.363281 773.742188 212.066406 C 771.214844 216.019531 768.332031 220.394531 765.242188 225.152344 C 731.988281 275.667969 670.15625 369.710938 690.644531 488.457031 C 701.285156 550.277344 733.222656 607.601562 785.335938 658.832031 L 784.222656 659.960938 C 740.671875 617.117188 711.097656 570.003906 696.25 519.523438 Z M 696.25 519.523438 " fill-opacity="1" fill-rule="nonzero"/></g></g></g><g clip-path="url(#b5fde09fa8)"><g clip-path="url(#40d3b9d2df)"><g clip-path="url(#0f4a9c5878)"><path fill="#cbb79e" d="M 693.578125 531.695312 C 689.84375 519.003906 686.867188 505.605469 685.128906 491.519531 C 671.1875 383.039062 726.507812 299.570312 763.191406 244.359375 C 771.277344 232.039062 778.421875 221.4375 783.574219 212.222656 C 808.570312 167.984375 834.003906 144.308594 856.5625 123.402344 C 881.28125 100.574219 900.671875 82.523438 908.0625 46.03125 C 920.679688 -16.859375 892.738281 -90.59375 822.601562 -179.664062 L 823.757812 -180.644531 C 894.171875 -91.175781 922.199219 -17.144531 909.519531 46.082031 C 902.113281 83.0625 882.429688 101.199219 857.5 124.40625 C 835.089844 145.273438 809.613281 168.800781 784.867188 212.804688 C 779.613281 222.210938 772.464844 232.8125 764.382812 245.132812 C 727.949219 300.109375 672.734375 383.386719 686.648438 491.234375 C 698.203125 580.691406 754.875 641.96875 773.480469 662.15625 L 772.328125 663.136719 C 756.578125 646.121094 713.589844 599.742188 693.578125 531.695312 Z M 693.578125 531.695312 " fill-opacity="1" fill-rule="nonzero"/></g></g></g><g clip-path="url(#da036616bc)"><g clip-path="url(#fd852033c7)"><g clip-path="url(#db3a75c246)"><path fill="#cbb79e" d="M 690.574219 544.929688 C 685.925781 529.132812 682.542969 512.167969 681.09375 494.152344 C 672.621094 393.363281 724.789062 317.71875 762.933594 262.558594 C 775.871094 243.835938 787.011719 227.730469 794.503906 212.859375 C 815.550781 171.546875 837.199219 147.539062 856.164062 126.40625 C 878.519531 101.546875 896.058594 82.113281 900.84375 44.945312 C 911.804688 -38.304688 854.230469 -120.644531 809.890625 -175.445312 L 811.042969 -176.425781 C 855.578125 -121.523438 913.429688 -38.785156 902.496094 45.101562 C 897.648438 82.609375 879.902344 102.421875 857.394531 127.324219 C 838.429688 148.457031 816.890625 172.273438 795.988281 213.542969 C 788.347656 228.460938 777.207031 244.566406 764.269531 263.285156 C 726.230469 318.257812 674.164062 393.710938 682.65625 494.011719 C 689.121094 570.535156 728.183594 625.921875 761.480469 665.527344 L 760.328125 666.507812 C 734.6875 636.039062 705.679688 596.296875 690.574219 544.929688 Z M 690.574219 544.929688 " fill-opacity="1" fill-rule="nonzero"/></g></g></g><g clip-path="url(#8e561f2b95)"><g clip-path="url(#5b4bb3eed6)"><g clip-path="url(#3d535b3766)"><path fill="#cbb79e" d="M 687.132812 556.683594 C 681.75 538.382812 677.941406 518.332031 677.097656 496.929688 C 673.28125 402.148438 723.035156 334.113281 763.0625 279.359375 C 780.003906 256.253906 796.023438 234.382812 805.625 213.597656 C 823.027344 176.242188 840.386719 152.375 855.738281 131.5 C 876.671875 102.890625 891.769531 82.253906 894.117188 43.875 C 898.851562 -38.183594 844.898438 -114.210938 797.324219 -171.269531 L 798.480469 -172.25 C 846.285156 -114.941406 900.328125 -38.621094 895.425781 43.972656 C 893.066406 82.835938 877.042969 104.707031 856.820312 132.464844 C 841.46875 153.339844 824.113281 177.207031 806.816406 214.367188 C 797.210938 235.15625 781.042969 257.070312 764.148438 280.324219 C 724.371094 334.839844 674.675781 402.539062 678.511719 496.835938 C 681.949219 580.5 729.199219 642.464844 749.335938 668.9375 L 748.179688 669.917969 C 733.210938 650.105469 702.933594 610.414062 687.132812 556.683594 Z M 687.132812 556.683594 " fill-opacity="1" fill-rule="nonzero"/></g></g></g><g clip-path="url(#45144abb83)"><g clip-path="url(#b156fea5b3)"><g clip-path="url(#b5b2fdf377)"><path fill="#cbb79e" d="M 683.261719 569.691406 C 677.054688 548.582031 673.023438 525.070312 673.105469 499.707031 C 673.488281 409.945312 721.140625 348.941406 763.226562 295.1875 C 784.804688 267.671875 805.164062 241.476562 816.539062 214.714844 C 829.949219 182.867188 843.066406 160.40625 854.6875 140.472656 C 873.726562 107.605469 887.472656 84 886.988281 43.085938 C 886.078125 -39.078125 831.785156 -112.441406 784.761719 -167.09375 L 785.917969 -168.074219 C 833.175781 -113.171875 887.554688 -39.515625 888.550781 42.945312 C 888.976562 84.199219 875.167969 108.144531 855.980469 141.050781 C 844.507812 160.945312 831.390625 183.40625 817.9375 215.105469 C 806.503906 242.207031 786.097656 268.253906 764.417969 295.960938 C 722.476562 349.671875 674.886719 410.335938 674.519531 499.613281 C 674.179688 581.34375 716.921875 642.707031 737.335938 672.304688 L 736.136719 673.140625 C 721.96875 652.769531 697.152344 616.925781 683.261719 569.691406 Z M 683.261719 569.691406 " fill-opacity="1" fill-rule="nonzero"/></g></g></g><g clip-path="url(#24ad8ea1b4)"><g clip-path="url(#d5c4df8e03)"><g clip-path="url(#f3fa7e764d)"><path fill="#cbb79e" d="M 679.050781 582.636719 C 672.015625 558.726562 667.582031 531.644531 669.066406 502.339844 C 673.289062 416.902344 721.289062 359.804688 763.589844 309.515625 C 789.832031 278.222656 814.691406 248.777344 827.472656 215.351562 C 836.441406 191.863281 845.109375 172.796875 852.566406 156.167969 C 871.183594 114.769531 883.546875 87.558594 879.773438 42 C 873.347656 -39.828125 821.679688 -107.542969 772.050781 -162.871094 L 773.203125 -163.855469 C 823.070312 -108.273438 874.824219 -40.261719 881.527344 41.964844 C 885.242188 87.863281 872.964844 115.371094 854.199219 156.8125 C 846.59375 173.484375 838.074219 192.507812 829.105469 215.992188 C 816.21875 249.613281 791.253906 279.246094 765.015625 310.539062 C 722.816406 360.636719 675.066406 417.5 670.863281 502.453125 C 666.875 582.691406 706.695312 645.554688 725.867188 675.839844 L 724.519531 676.714844 C 712.070312 657.285156 691.421875 624.707031 679.050781 582.636719 Z M 679.050781 582.636719 " fill-opacity="1" fill-rule="nonzero"/></g></g></g><g clip-path="url(#40aa27c2ec)"><g clip-path="url(#2abf7f4e0f)"><g clip-path="url(#066a2f40d6)"><path fill="#cbb79e" d="M 674.761719 596.410156 C 666.859375 569.542969 662.03125 538.40625 665.21875 505.074219 C 673.105469 423.371094 719.480469 372.203125 764.285156 322.78125 C 795.300781 288.640625 824.597656 256.289062 838.636719 216.238281 C 841.945312 206.761719 844.984375 198.011719 848.007812 189.746094 C 869.5 129.21875 881.351562 95.902344 873.042969 40.933594 C 860.699219 -41.398438 808.734375 -106.304688 759.589844 -158.886719 L 760.746094 -159.867188 C 810.121094 -107.03125 862.128906 -41.980469 874.605469 40.792969 C 883 96.058594 871.042969 129.566406 849.449219 190.285156 C 846.574219 198.507812 843.386719 207.300781 840.078125 216.773438 C 825.976562 257.167969 796.535156 289.5625 765.414062 323.894531 C 720.714844 373.125 674.398438 423.953125 666.722656 505.273438 C 659.113281 584.652344 697.351562 650.867188 713.71875 679.25 L 712.328125 679.980469 C 702.796875 663.378906 685.785156 633.902344 674.761719 596.410156 Z M 674.761719 596.410156 " fill-opacity="1" fill-rule="nonzero"/></g></g></g><g clip-path="url(#38473f4ddb)"><g clip-path="url(#862fc07566)"><g clip-path="url(#7f6d794937)"><path fill="#cbb79e" d="M 669.5 610.144531 C 660.46875 579.441406 655.808594 545.050781 661.078125 507.894531 C 672.304688 429.378906 719.488281 381.503906 765.058594 335.222656 C 801.023438 298.828125 834.824219 264.347656 849.65625 217.164062 C 872.484375 143.734375 879.882812 102.910156 865.914062 40.140625 C 847.300781 -43.875 792.488281 -108.101562 746.730469 -154.625 L 747.839844 -155.753906 C 793.640625 -109.082031 848.691406 -44.601562 867.390625 39.707031 C 881.300781 102.8125 873.945312 143.789062 851.054688 217.554688 C 836.164062 265.078125 802.210938 299.597656 766.144531 336.1875 C 720.679688 382.273438 673.746094 429.917969 662.535156 507.949219 C 652.488281 577.941406 678.144531 637.914062 701.527344 682.515625 L 700.136719 683.246094 C 689.15625 662.257812 677.574219 637.601562 669.5 610.144531 Z M 669.5 610.144531 " fill-opacity="1" fill-rule="nonzero"/></g></g></g><g clip-path="url(#771ce7f2ce)"><g clip-path="url(#6c2a69310e)"><g clip-path="url(#d345f8fffd)"><path fill="#cbb79e" d="M 664.445312 626.226562 C 654.503906 592.421875 649 552.984375 657.082031 510.675781 C 671.570312 435.046875 719.621094 390.125 766.203125 346.753906 C 807.101562 308.585938 845.730469 272.527344 860.675781 218.09375 C 881.109375 143.605469 872.84375 96.960938 858.890625 39.160156 C 837.011719 -51.59375 772.621094 -113.484375 734.167969 -150.449219 L 735.277344 -151.578125 C 773.925781 -114.507812 838.546875 -52.367188 860.515625 38.683594 C 874.507812 96.632812 882.671875 143.46875 862.175781 218.292969 C 847.066406 273.257812 808.289062 309.359375 767.289062 347.71875 C 721 391 673.054688 435.734375 658.585938 510.875 C 645.101562 581.714844 669.871094 644.675781 689.570312 686.03125 L 688.183594 686.761719 C 680.167969 669.875 671.261719 649.398438 664.445312 626.226562 Z M 664.445312 626.226562 " fill-opacity="1" fill-rule="nonzero"/></g></g></g><g clip-path="url(#ca32f02c78)"><g clip-path="url(#63c339f60c)"><g clip-path="url(#ae296c9ad9)"><path fill="#cbb79e" d="M 658.972656 643.070312 C 645.300781 596.574219 643.46875 553.808594 653.089844 513.453125 C 670.597656 440.464844 719.914062 398.214844 767.722656 357.375 C 813.726562 318.023438 857.019531 280.914062 871.695312 219.023438 C 888.332031 148.539062 871.90625 93.226562 851.910156 38.328125 C 815.667969 -61.996094 744.90625 -125.378906 721.601562 -146.273438 L 722.566406 -147.355469 C 745.871094 -126.464844 817.015625 -62.871094 853.34375 37.746094 C 873.277344 92.984375 889.894531 148.398438 873.046875 219.265625 C 858.355469 281.644531 814.664062 319.03125 768.511719 358.425781 C 720.957031 399.03125 671.785156 441.238281 654.445312 513.695312 C 641.582031 567.035156 649.214844 624.609375 677.570312 689.402344 L 676.140625 689.984375 C 669.316406 673.867188 663.445312 658.273438 658.972656 643.070312 Z M 658.972656 643.070312 " fill-opacity="1" fill-rule="nonzero"/></g></g></g><g clip-path="url(#240556544c)"><g clip-path="url(#facffd4458)"><g clip-path="url(#74bd6a07c8)"><path fill="#cbb79e" d="M 652.808594 660.277344 C 637.613281 608.617188 636.375 560.226562 649.199219 516.039062 C 669.640625 445.398438 720.480469 405.589844 769.617188 367.082031 C 820.707031 327.035156 869.085938 289.234375 882.816406 219.761719 C 895.730469 154.058594 869.949219 94.765625 845.03125 37.300781 C 815.253906 -31.242188 768.296875 -93.289062 709.039062 -142.097656 L 709.957031 -143.328125 C 769.410156 -94.417969 816.597656 -32.117188 846.421875 36.574219 C 871.382812 94.183594 897.25 153.773438 884.171875 220.003906 C 870.425781 289.960938 821.792969 328 770.449219 368.277344 C 721.5625 406.550781 670.875 446.316406 650.597656 516.429688 C 635.261719 569.535156 640.351562 628.820312 665.71875 692.726562 L 664.285156 693.308594 C 659.910156 682.246094 656.019531 671.203125 652.808594 660.277344 Z M 652.808594 660.277344 " fill-opacity="1" fill-rule="nonzero"/></g></g></g><g clip-path="url(#a63136bad6)"><g clip-path="url(#7e7f02954a)"><g clip-path="url(#6ca381ab85)"><path fill="#cbb79e" d="M 646.332031 669.882812 C 629.835938 613.789062 628.464844 562.230469 642.226562 516.328125 C 662.9375 447.691406 711.988281 408.886719 759.527344 371.492188 C 809.226562 332.175781 856.21875 295.101562 869.851562 226.941406 C 882.261719 164.4375 859.863281 110.082031 836.0625 52.609375 L 834.8125 49.449219 C 805.242188 -22.203125 757.375 -87.351562 696.421875 -139.1875 L 697.386719 -140.273438 C 758.527344 -88.332031 806.585938 -23.078125 836.246094 48.867188 L 837.496094 52.027344 C 860.304688 107.226562 883.972656 164.253906 871.355469 227.144531 C 857.554688 295.832031 810.460938 333.097656 760.507812 372.644531 C 713.261719 409.957031 664.363281 448.714844 643.816406 516.820312 C 628.054688 569.570312 632.386719 629.558594 656.566406 695.417969 L 655.136719 696 C 651.75 687.210938 648.847656 678.441406 646.332031 669.882812 Z M 646.332031 669.882812 " fill-opacity="1" fill-rule="nonzero"/></g></g></g><g clip-path="url(#7d2837d1da)"><g clip-path="url(#65d56dad54)"><g clip-path="url(#841e837c24)"><path fill="#cbb79e" d="M 639.707031 679.527344 C 621.996094 619.304688 620.492188 564.578125 635.402344 516.570312 C 656.277344 450.128906 703.539062 412.335938 749.394531 375.753906 C 797.707031 337.167969 843.457031 300.78125 856.992188 233.933594 C 869.152344 174.386719 848.519531 122.238281 826.875 67.179688 L 824.59375 61.597656 C 787.363281 -32.820312 727.425781 -98.109375 683.703125 -136.089844 L 684.664062 -137.171875 C 728.433594 -99.046875 788.5625 -33.65625 825.921875 61.207031 L 828.203125 66.789062 C 850.085938 122.097656 870.609375 174.4375 858.433594 234.472656 C 844.730469 301.847656 798.878906 338.429688 750.3125 377.25 C 704.710938 413.59375 657.597656 451.34375 636.886719 517.253906 C 620.597656 569.839844 624.070312 630.722656 647.269531 698.152344 L 645.792969 698.585938 C 643.585938 692.179688 641.574219 685.875 639.707031 679.527344 Z M 639.707031 679.527344 " fill-opacity="1" fill-rule="nonzero"/></g></g></g><g clip-path="url(#c792905b37)"><g clip-path="url(#f166967ae0)"><g clip-path="url(#0995870507)"><path fill="#cbb79e" d="M 632.699219 688.964844 C 613.773438 624.609375 612.332031 566.816406 628.472656 517.003906 C 649.324219 452.65625 694.941406 415.824219 739.199219 380.355469 C 786.121094 342.5 830.484375 306.839844 843.925781 241.304688 C 855.554688 184.320312 836.84375 134.332031 816.96875 81.480469 L 814.121094 73.976562 C 777.28125 -24.5625 715.800781 -92.925781 670.832031 -132.945312 L 671.796875 -134.03125 C 716.957031 -93.90625 778.523438 -25.25 815.449219 73.585938 L 818.296875 81.089844 C 838.257812 134.238281 857.160156 184.328125 845.324219 241.695312 C 831.714844 307.761719 787.101562 343.65625 740.035156 381.554688 C 696.070312 416.9375 650.40625 453.621094 629.769531 517.585938 C 612.695312 570.238281 615.414062 631.824219 637.777344 700.785156 L 636.300781 701.21875 C 635.085938 697.085938 633.871094 692.953125 632.699219 688.964844 Z M 632.699219 688.964844 " fill-opacity="1" fill-rule="nonzero"/></g></g></g><g clip-path="url(#17dd26823f)"><g clip-path="url(#0500ecbb03)"><g clip-path="url(#dcb1daf2f0)"><path fill="#cbb79e" d="M 625.414062 698.003906 C 605.359375 629.808594 604.023438 569.101562 621.648438 517.246094 C 642.664062 455.09375 686.640625 419.226562 729.066406 384.621094 C 774.601562 347.492188 817.570312 312.5625 831.066406 248.292969 C 842.460938 193.78125 825.285156 145.75 807.097656 94.808594 C 806.082031 91.898438 805.019531 88.84375 804.003906 85.933594 C 767.496094 -16.394531 704.722656 -88.0625 658.320312 -130.226562 L 659.433594 -131.355469 C 705.980469 -89.234375 768.988281 -17.3125 805.480469 85.5 C 806.496094 88.40625 807.558594 91.464844 808.574219 94.375 C 826.804688 145.464844 844.066406 193.792969 832.613281 248.640625 C 818.953125 313.441406 775.730469 348.605469 730.046875 385.773438 C 687.726562 420.191406 643.851562 455.867188 623.046875 517.636719 C 605.132812 570.699219 607.09375 632.988281 628.6875 703.136719 L 627.210938 703.570312 C 626.542969 701.84375 625.976562 699.921875 625.414062 698.003906 Z M 625.414062 698.003906 " fill-opacity="1" fill-rule="nonzero"/></g></g></g><g clip-path="url(#1981093051)"><g clip-path="url(#ba7042e3c9)"><g clip-path="url(#be69548ee6)"><path fill="#cbb79e" d="M 617.722656 706.203125 C 596.710938 634.757812 595.667969 571.234375 614.484375 517.429688 C 635.621094 457.328125 677.855469 422.613281 718.640625 388.96875 C 762.824219 352.71875 804.511719 318.328125 817.910156 255.371094 C 828.984375 203.039062 814.058594 158.835938 796.652344 107.824219 C 795.546875 104.617188 794.445312 101.414062 793.34375 98.210938 C 757.902344 -8.121094 693.347656 -83.113281 645.601562 -127.128906 L 646.710938 -128.257812 C 694.691406 -83.992188 759.292969 -8.847656 795.261719 97.644531 C 796.363281 100.851562 797.46875 104.054688 798.570312 107.257812 C 815.917969 158.609375 831.074219 203.066406 819.796875 255.777344 C 806.230469 319.265625 764.25 353.746094 719.957031 390.183594 C 679.277344 423.640625 637.191406 458.308594 616.222656 517.878906 C 597.464844 571.347656 598.566406 634.53125 619.34375 705.722656 Z M 617.722656 706.203125 " fill-opacity="1" fill-rule="nonzero"/></g></g></g><g clip-path="url(#24b235c2db)"><g clip-path="url(#aef2a9a6c4)"><g clip-path="url(#078c36b6b7)"><path fill="#cbb79e" d="M 608.527344 708.746094 C 588.140625 636.15625 587.855469 571.929688 607.808594 517.628906 C 628.960938 459.765625 669.554688 426.019531 708.742188 393.484375 C 751.496094 357.816406 791.835938 324.300781 805.285156 262.609375 C 816.183594 212.414062 802.519531 169.765625 786.664062 120.222656 C 785.5625 117.015625 784.5625 113.621094 783.417969 110.269531 C 748.308594 0.15625 682.164062 -78.0625 632.984375 -124.21875 L 634.097656 -125.347656 C 683.363281 -78.894531 749.695312 -0.574219 784.9375 109.984375 C 786.082031 113.335938 787.039062 116.582031 788.183594 119.933594 C 804.082031 169.625 817.792969 212.425781 806.875 263.105469 C 793.261719 325.324219 752.667969 359.074219 709.765625 394.785156 C 670.726562 427.277344 630.28125 460.980469 609.292969 518.3125 C 589.546875 572.234375 589.746094 636.164062 610.046875 708.457031 Z M 608.527344 708.746094 " fill-opacity="1" fill-rule="nonzero"/></g></g></g><g clip-path="url(#df7eaa734e)"><g clip-path="url(#9258431f38)"><g clip-path="url(#cfe0b8c903)"><path fill="#cbb79e" d="M 599.226562 711.480469 C 579.363281 637.9375 579.789062 572.859375 600.878906 518.0625 C 622.199219 462.398438 661.046875 429.804688 698.546875 398.085938 C 739.910156 363.148438 779.011719 330.316406 792.472656 269.746094 C 803.96875 217.773438 789.71875 173.691406 773.242188 122.566406 C 733.546875 -0.957031 660.292969 -83.175781 620.265625 -121.121094 L 621.375 -122.25 C 661.445312 -84.15625 734.789062 -1.644531 774.71875 122.132812 C 791.238281 173.402344 805.574219 217.78125 793.867188 270.136719 C 780.347656 331.046875 741.039062 364.257812 699.527344 399.242188 C 662.128906 430.765625 623.429688 463.316406 602.320312 518.601562 C 581.4375 573.015625 580.925781 637.796875 600.703125 711.046875 Z M 599.226562 711.480469 " fill-opacity="1" fill-rule="nonzero"/></g></g></g><g clip-path="url(#407d559bfa)"><g clip-path="url(#99fd114be4)"><g clip-path="url(#d0baa1b8e1)"><path fill="#cbb79e" d="M 589.882812 714.066406 C 570.347656 639.464844 571.679688 573.640625 593.90625 518.347656 C 615.285156 465.070312 652.449219 433.292969 688.207031 402.730469 C 728.179688 368.523438 765.996094 336.230469 779.359375 276.972656 C 789.988281 230.222656 779.039062 191.90625 765.246094 143.359375 L 762.875 134.753906 C 729.585938 17.207031 660.03125 -67.703125 607.5 -118.167969 L 608.613281 -119.296875 C 661.332031 -68.726562 730.976562 16.476562 764.351562 134.320312 L 766.71875 142.925781 C 780.558594 191.621094 791.550781 230.085938 780.90625 277.320312 C 767.375 337.109375 729.414062 369.441406 689.1875 403.886719 C 653.429688 434.449219 616.519531 465.992188 595.347656 518.886719 C 573.328125 573.796875 571.910156 639.324219 591.359375 713.632812 Z M 589.882812 714.066406 " fill-opacity="1" fill-rule="nonzero"/></g></g></g><g clip-path="url(#3343c0de3e)"><g clip-path="url(#d56163f4cc)"><g clip-path="url(#ab5bf98434)"><path fill="#cbb79e" d="M 580.539062 716.65625 C 561.292969 640.84375 563.527344 574.273438 586.933594 518.636719 C 608.480469 467.554688 643.75 436.976562 677.863281 407.375 C 716.449219 373.894531 753.023438 342.292969 766.394531 284.152344 C 776.929688 238.714844 766.875 201.257812 754.355469 153.78125 L 752.507812 146.945312 C 720.609375 25.941406 649.082031 -62.398438 594.929688 -115.113281 L 596.039062 -116.242188 C 650.425781 -63.273438 722.144531 25.167969 754.171875 146.617188 L 756.023438 153.449219 C 768.734375 201.03125 778.683594 238.679688 768.089844 284.457031 C 754.507812 342.976562 717.832031 374.773438 678.992188 408.488281 C 644.980469 437.894531 609.859375 468.433594 588.375 519.171875 C 565.027344 574.472656 562.898438 640.851562 582.015625 716.21875 Z M 580.539062 716.65625 " fill-opacity="1" fill-rule="nonzero"/></g></g></g><g clip-path="url(#14b9f966fb)"><g clip-path="url(#19418d257f)"><g clip-path="url(#dce0800f4a)"><path fill="#cbb79e" d="M 571.34375 719.199219 C 552.425781 642.328125 555.371094 574.90625 580.109375 518.878906 C 601.714844 470.183594 635.238281 440.761719 667.566406 412.167969 C 704.867188 379.226562 740.050781 348.351562 753.582031 291.289062 C 764.121094 246.972656 755.398438 211.851562 743.355469 163.269531 L 742.332031 159.242188 C 711.628906 34.675781 638.28125 -57.136719 582.164062 -112.160156 L 583.277344 -113.289062 C 639.582031 -58.160156 713.019531 33.949219 743.804688 158.804688 L 744.832031 162.835938 C 756.960938 211.710938 765.582031 247.023438 755.082031 291.488281 C 741.386719 349.082031 706.101562 380.148438 668.503906 413.175781 C 636.28125 441.578125 602.902344 470.957031 581.359375 519.3125 C 556.726562 575.152344 553.800781 642.085938 572.628906 718.660156 Z M 571.34375 719.199219 " fill-opacity="1" fill-rule="nonzero"/></g></g></g><g clip-path="url(#f8a29bc91a)"><g clip-path="url(#7989c034c7)"><g clip-path="url(#07f4c65918)"><path fill="#cbb79e" d="M 562.003906 721.785156 C 543.285156 643.414062 546.984375 575.289062 573.136719 519.164062 C 594.804688 472.859375 626.539062 444.441406 657.121094 417.003906 C 693.035156 384.792969 727.078125 354.410156 740.617188 298.46875 C 751.082031 254.976562 743.179688 219.933594 731.960938 171.429688 C 708.511719 68.792969 653.847656 -25.46875 569.445312 -109.0625 L 570.554688 -110.191406 C 655.195312 -26.347656 709.945312 68.210938 733.628906 171.101562 C 744.742188 219.792969 752.835938 254.941406 742.164062 298.816406 C 728.460938 355.289062 694.308594 385.859375 658.25 418.117188 C 627.667969 445.554688 596.035156 473.78125 574.625 519.851562 C 548.53125 575.636719 544.890625 643.421875 563.523438 721.5 Z M 562.003906 721.785156 " fill-opacity="1" fill-rule="nonzero"/></g></g></g><g clip-path="url(#b291955176)"><g clip-path="url(#af4ff30fd7)"><g clip-path="url(#ba02060ff1)"><path fill="#cbb79e" d="M 566.832031 720.207031 C 547.097656 644.378906 548.503906 577.730469 570.75 521.953125 C 589.679688 474.527344 619.460938 444.917969 648.429688 416.351562 C 666.800781 398.121094 684.210938 380.972656 698.503906 359.769531 C 711 341.179688 719.621094 321.964844 725.144531 300.933594 C 736.398438 258.492188 731.074219 226.21875 721.691406 176.859375 C 702.140625 75.476562 648.734375 -19.957031 562.742188 -106.769531 L 563.851562 -107.898438 C 650.078125 -20.832031 703.71875 74.851562 723.210938 176.570312 C 732.828125 226.183594 737.777344 259.371094 726.6875 301.28125 C 721.0625 322.503906 712.335938 341.910156 699.882812 360.644531 C 685.488281 382.039062 668.078125 399.1875 649.75 417.570312 C 620.929688 446.089844 591.25 475.507812 572.53125 522.550781 C 550.386719 578.136719 549.1875 644.40625 568.6875 719.980469 Z M 566.832031 720.207031 " fill-opacity="1" fill-rule="nonzero"/></g></g></g><g clip-path="url(#abf8901e58)"><g clip-path="url(#30102bce0e)"><g clip-path="url(#4c68204cdf)"><path fill="#cbb79e" d="M 571.511719 718.667969 C 550.648438 644.457031 549.460938 580.976562 568.023438 524.679688 C 584.027344 476.027344 612.109375 444.996094 639.269531 415.199219 C 655.132812 397.703125 670.285156 381.058594 682.917969 361.304688 C 694.78125 342.742188 703.445312 323.675781 709.183594 303.382812 C 721.429688 260.488281 717.589844 226.175781 710.785156 182.308594 C 695.28125 82.144531 643.027344 -14.269531 555.449219 -104.304688 L 556.558594 -105.433594 C 644.332031 -15.292969 696.710938 81.5625 712.304688 182.023438 C 719.15625 226.035156 723.035156 260.5 710.730469 303.730469 C 704.886719 324.210938 696.222656 343.28125 684.253906 362.035156 C 671.515625 381.980469 656.511719 398.578125 640.5 416.117188 C 613.488281 445.875 585.511719 476.714844 569.613281 525.171875 C 551.109375 581.132812 552.359375 644.273438 573.132812 718.191406 Z M 571.511719 718.667969 " fill-opacity="1" fill-rule="nonzero"/></g></g></g><g clip-path="url(#982a3d6494)"><g clip-path="url(#e95bb0bd5b)"><g clip-path="url(#21e342f93f)"><path fill="#cbb79e" d="M 574.820312 711.921875 C 554.371094 642.398438 551.371094 582.019531 565.636719 527.464844 C 578.730469 477.105469 605.109375 444.648438 630.628906 413.089844 C 644.027344 396.476562 656.757812 380.867188 667.777344 362.710938 C 679.316406 343.601562 687.609375 325.445312 693.667969 305.699219 C 706.121094 265.152344 705.671875 234.171875 700.324219 187.632812 C 688.863281 88.683594 637.722656 -8.859375 548.554688 -102.113281 L 549.664062 -103.242188 C 639.070312 -9.738281 690.296875 88.101562 701.84375 187.347656 C 707.234375 234.035156 707.769531 265.308594 695.214844 306.046875 C 689.109375 325.644531 680.695312 344.476562 669.261719 363.398438 C 658.285156 381.699219 644.992188 398.121094 632.011719 413.964844 C 606.59375 445.335938 580.363281 477.746094 567.285156 527.621094 C 552.6875 583.234375 556.230469 644.898438 578.066406 716.421875 L 576.589844 716.855469 C 575.859375 715.464844 575.339844 713.695312 574.820312 711.921875 Z M 574.820312 711.921875 " fill-opacity="1" fill-rule="nonzero"/></g></g></g><g clip-path="url(#b9132df909)"><g clip-path="url(#3177039ae8)"><g clip-path="url(#ae4d11ea38)"><path fill="#cbb79e" d="M 575.660156 697.882812 C 557.429688 635.886719 553.304688 580.96875 563.101562 530.296875 C 573.199219 477.929688 598.042969 443.519531 621.921875 410.195312 C 632.375 395.574219 643.183594 380.527344 652.382812 364.351562 C 663.496094 344.886719 671.535156 326.964844 677.902344 308.253906 C 690.335938 270.917969 693.324219 241.8125 689.609375 193.1875 C 682.109375 95.160156 632.3125 -3.261719 541.40625 -99.691406 L 542.519531 -100.820312 C 633.660156 -4.136719 683.582031 94.726562 691.128906 192.902344 C 694.929688 241.820312 691.941406 270.925781 679.296875 308.644531 C 672.976562 327.503906 664.9375 345.425781 653.71875 365.082031 C 644.523438 381.257812 633.609375 396.496094 623.152344 411.117188 C 599.378906 444.25 574.683594 478.617188 564.648438 530.644531 C 553.914062 585.761719 559.789062 646.097656 582.683594 715.222656 L 581.210938 715.65625 C 579.28125 709.648438 577.355469 703.640625 575.660156 697.882812 Z M 575.660156 697.882812 " fill-opacity="1" fill-rule="nonzero"/></g></g></g><g clip-path="url(#fef21a20fb)"><g clip-path="url(#c6765d7b5a)"><g clip-path="url(#32cc7398db)"><path fill="#cbb79e" d="M 575.671875 682.644531 C 559.695312 628.324219 554.6875 579.117188 560.566406 533.125 C 567.496094 478.164062 590.820312 441.316406 613.222656 405.699219 C 621.320312 392.890625 629.632812 379.703125 636.941406 365.84375 C 647.691406 345.683594 655.671875 328.101562 661.941406 310.703125 C 675.929688 272.105469 680.289062 242.757812 678.703125 198.640625 C 675.292969 101.976562 626.757812 2.382812 534.113281 -97.226562 L 535.269531 -98.207031 C 628.25 1.464844 677.0625 101.457031 680.414062 198.460938 C 682.085938 242.871094 677.582031 272.261719 663.53125 311.195312 C 657.15625 328.789062 649.175781 346.371094 638.425781 366.53125 C 631.117188 380.390625 622.660156 393.621094 614.558594 406.429688 C 592.257812 441.851562 569.042969 478.511719 562.171875 533.136719 C 555.257812 587.609375 563.621094 646.574219 587.425781 713.347656 L 585.992188 713.929688 C 582.085938 703.371094 578.710938 692.976562 575.671875 682.644531 Z M 575.671875 682.644531 " fill-opacity="1" fill-rule="nonzero"/></g></g></g><g clip-path="url(#d7f5102402)"><g clip-path="url(#bd9e4316d0)"><g clip-path="url(#a38265f16d)"><path fill="#cbb79e" d="M 574.800781 666.058594 C 561.128906 619.5625 555.554688 576.617188 558.03125 535.957031 C 561.488281 477.367188 583.457031 437.546875 604.695312 399.066406 C 610.320312 388.75 616.199219 378.199219 621.652344 367.296875 C 629.457031 351.847656 638.402344 333.179688 646.277344 313.0625 C 660.164062 277.386719 667.828125 249.46875 668.089844 204.007812 C 668.875 108.515625 621.347656 7.984375 527.070312 -94.996094 L 528.226562 -95.976562 C 622.738281 7.253906 670.351562 108.082031 669.550781 204.058594 C 669.226562 249.863281 661.605469 277.925781 647.613281 313.792969 C 639.636719 334.101562 630.648438 352.621094 622.886719 368.214844 C 617.535156 378.929688 611.554688 389.671875 605.925781 399.984375 C 584.792969 438.277344 562.929688 477.902344 559.382812 536.199219 C 556.101562 589.929688 566.796875 647.566406 591.898438 712.191406 L 590.464844 712.773438 C 584.613281 696.691406 579.230469 681.117188 574.800781 666.058594 Z M 574.800781 666.058594 " fill-opacity="1" fill-rule="nonzero"/></g></g></g><g clip-path="url(#942bd1fca6)"><g clip-path="url(#1904f4e8a2)"><g clip-path="url(#cbbf6f789b)"><path fill="#cbb79e" d="M 572.824219 647.878906 C 561.535156 609.5 555.910156 573.464844 555.640625 538.742188 C 555.234375 475.195312 576.222656 431.496094 596.714844 389.382812 C 599.875 382.679688 603.332031 375.890625 606.449219 369.039062 L 609.878906 361.617188 C 617.257812 345.8125 624.265625 330.921875 630.699219 315.71875 C 644.957031 281.855469 655.335938 254.429688 657.714844 209.625 C 662.546875 115.347656 616.277344 13.644531 520.308594 -92.363281 L 521.464844 -93.347656 C 617.710938 13.0625 664.066406 115.0625 659.21875 209.824219 C 656.925781 254.921875 646.589844 282.5 632.230469 316.554688 C 625.792969 331.757812 618.832031 346.796875 611.449219 362.597656 L 608.019531 370.019531 C 604.902344 376.871094 601.492188 383.808594 598.285156 390.363281 C 577.941406 432.433594 556.867188 475.835938 557.335938 539.046875 C 557.683594 592.03125 570.816406 648.148438 597.109375 710.820312 L 595.675781 711.402344 C 586.4375 689.261719 578.8125 668.246094 572.824219 647.878906 Z M 572.824219 647.878906 " fill-opacity="1" fill-rule="nonzero"/></g></g></g><g clip-path="url(#158dc787c1)"><g clip-path="url(#43d1cd5e25)"><g clip-path="url(#77624de6d2)"><path fill="#cbb79e" d="M 569.308594 627.742188 C 560.539062 597.925781 555.136719 569.203125 553.0625 541.425781 C 547.761719 470.496094 568.878906 421.785156 589.160156 374.605469 L 590.96875 370.386719 C 596.96875 356.433594 602.976562 343.597656 608.628906 331.191406 C 610.6875 326.738281 612.746094 322.285156 614.804688 317.828125 L 615.964844 315.242188 C 630.910156 282.621094 642.78125 257 646.722656 214.78125 C 655.894531 121.632812 610.972656 19.054688 513.222656 -90.28125 L 514.378906 -91.261719 C 612.402344 18.472656 657.605469 121.453125 648.5625 215.042969 C 644.558594 257.597656 632.585938 283.410156 617.640625 316.03125 L 616.480469 318.621094 C 614.421875 323.074219 612.363281 327.527344 610.304688 331.980469 C 604.652344 344.390625 598.644531 357.222656 592.601562 371.027344 L 590.792969 375.246094 C 570.464844 422.28125 549.601562 470.757812 554.816406 541.390625 C 558.707031 593.332031 574.03125 648.164062 601.953125 708.753906 L 600.519531 709.335938 C 587.367188 680.96875 576.992188 653.871094 569.308594 627.742188 Z M 569.308594 627.742188 " fill-opacity="1" fill-rule="nonzero"/></g></g></g><g clip-path="url(#eaaa5472d0)"><g clip-path="url(#ecf4caf136)"><g clip-path="url(#e2e0b8d465)"><path fill="#cbb79e" d="M 564.195312 605.992188 C 557.984375 584.882812 553.558594 564.375 550.71875 544.363281 C 540.273438 470.132812 558.207031 416.585938 575.910156 372.085938 C 583.832031 352.117188 592.234375 334.890625 599.375 320.441406 C 601.371094 316.328125 603.453125 312.507812 605.347656 308.582031 C 619.128906 281.273438 631.117188 257.699219 636.449219 220.210938 C 649.667969 128.277344 605.855469 24.566406 506.371094 -87.945312 L 507.527344 -88.925781 C 607.4375 23.941406 651.378906 128.09375 637.996094 220.554688 C 632.558594 258.238281 620.613281 281.960938 606.683594 309.3125 C 604.75 313.089844 602.707031 317.054688 600.710938 321.171875 C 593.574219 335.621094 585.273438 352.65625 577.351562 372.625 C 559.046875 418.902344 541.925781 470.289062 552.28125 544.222656 C 559.417969 595.207031 577.183594 648.519531 606.675781 707.363281 L 605.285156 708.09375 C 587.339844 672.15625 573.699219 638.316406 564.195312 605.992188 Z M 564.195312 605.992188 " fill-opacity="1" fill-rule="nonzero"/></g></g></g><g clip-path="url(#650129f804)"><g clip-path="url(#bcc283acb5)"><g clip-path="url(#5dbb56ab50)"><path fill="#cbb79e" d="M 556.96875 581.976562 C 553.496094 570.167969 550.554688 558.523438 548.183594 547.191406 C 535.578125 485.785156 539.242188 432.265625 560.472656 373.578125 C 568.148438 352.238281 576.789062 335.261719 583.5625 322.847656 C 586.75 316.777344 590.167969 310.960938 593.339844 305.378906 C 606.597656 281.75 619.320312 259.566406 625.839844 225.574219 C 643.148438 135.003906 600.449219 30.167969 499.183594 -85.671875 L 500.335938 -86.652344 C 546.695312 -33.730469 581.09375 17.257812 602.660156 64.960938 C 628.464844 122.164062 636.808594 176.160156 627.195312 225.816406 C 620.71875 259.957031 608.039062 282.289062 594.484375 306.003906 C 591.316406 311.585938 588.042969 317.359375 584.855469 323.429688 C 578.230469 335.800781 569.546875 352.628906 561.871094 373.972656 C 540.703125 432.320312 536.992188 485.691406 549.660156 546.757812 C 559.78125 595.902344 580.613281 649.277344 611.3125 705.679688 L 609.921875 706.410156 C 586.253906 663.011719 568.515625 621.238281 556.96875 581.976562 Z M 556.96875 581.976562 " fill-opacity="1" fill-rule="nonzero"/></g></g></g><g clip-path="url(#1449ee9516)"><g clip-path="url(#3ea6b72902)"><g clip-path="url(#610eec6f89)"><path fill="#cbb79e" d="M 548.035156 558.140625 C 543.476562 542.640625 539.980469 527.472656 537.390625 512.675781 C 528.980469 463.351562 531.558594 417.046875 545.226562 375.175781 C 555.074219 344.855469 568.125 324.339844 580.757812 304.585938 C 594.582031 282.878906 607.527344 262.554688 615.125 231.132812 C 636.773438 141.691406 595.421875 35.976562 492.226562 -83.144531 L 493.382812 -84.125 C 540.703125 -29.5625 575.300781 22.648438 596.410156 70.96875 C 621.5625 128.683594 628.445312 182.628906 616.523438 231.523438 C 608.820312 263.136719 595.769531 283.652344 581.949219 305.359375 C 569.460938 325.070312 556.515625 345.394531 546.625 375.566406 C 516.875 466.910156 540.238281 577.433594 616.140625 704.101562 L 614.792969 704.976562 C 583.875 653.289062 561.578125 604.195312 548.035156 558.140625 Z M 548.035156 558.140625 " fill-opacity="1" fill-rule="nonzero"/></g></g></g><g clip-path="url(#e1e7e3ae4a)"><g clip-path="url(#9c758fed7a)"><g clip-path="url(#2d1426f7b0)"><path fill="#cbb79e" d="M 563.082031 536.234375 C 545.113281 475.125 541.578125 420.03125 552.660156 371.546875 C 559.363281 341.992188 569.566406 322.152344 579.414062 302.738281 C 590.195312 281.605469 600.355469 261.617188 605.253906 230.828125 C 619.753906 141.082031 579.546875 35.992188 485.75 -81.71875 L 486.90625 -82.703125 C 581.085938 35.222656 621.464844 140.898438 606.945312 231.132812 C 601.945312 262.113281 591.679688 282.289062 580.898438 303.421875 C 571.15625 322.648438 560.953125 342.488281 554.351562 371.851562 C 534.320312 459.695312 562.386719 569.316406 637.839844 697.71875 L 636.449219 698.449219 C 602.25 640.507812 577.84375 586.421875 563.082031 536.234375 Z M 563.082031 536.234375 " fill-opacity="1" fill-rule="nonzero"/></g></g></g><g clip-path="url(#a2b9228a4c)"><g clip-path="url(#dde8c8d212)"><g clip-path="url(#ceed595983)"><path fill="#cbb79e" d="M 575.785156 509.082031 C 560.289062 456.386719 555.105469 409.316406 560.28125 368.023438 C 563.84375 339.230469 571.257812 319.730469 578.363281 300.800781 C 586.0625 280.09375 593.332031 260.636719 595.761719 230.730469 C 604.507812 118.140625 537.375 -0.519531 479.464844 -80.191406 L 480.664062 -81.027344 C 538.808594 -1.101562 606.175781 117.8125 597.265625 230.929688 C 594.921875 261.128906 587.546875 280.777344 579.847656 301.488281 C 572.742188 320.414062 565.476562 339.875 561.828125 368.371094 C 551.277344 452.460938 584.050781 561.179688 659.390625 691.378906 L 658 692.109375 C 619.441406 625.347656 592.023438 564.289062 575.785156 509.082031 Z M 575.785156 509.082031 " fill-opacity="1" fill-rule="nonzero"/></g></g></g><g clip-path="url(#68aaaf047e)"><g clip-path="url(#da7df3dd5c)"><g clip-path="url(#ca0dfd6424)"><path fill="#cbb79e" d="M 585.3125 475.492188 C 573.113281 434.011719 567.226562 397.09375 567.757812 364.542969 C 568.132812 336.367188 572.71875 317.054688 577.03125 298.464844 C 581.738281 278.476562 586.117188 259.550781 585.933594 230.574219 C 585.136719 116.621094 523.9375 -0.414062 472.882812 -78.578125 L 474.226562 -79.453125 C 507.742188 -28.207031 534.492188 22.941406 553.664062 72.3125 C 575.875 129.289062 587.210938 182.566406 587.539062 230.582031 C 587.765625 259.707031 583.285156 278.824219 578.621094 298.960938 C 574.304688 317.550781 569.824219 336.667969 569.410156 364.699219 C 568.164062 444.449219 605.644531 552.265625 680.941406 685.042969 L 679.550781 685.773438 C 634.765625 606.566406 603.199219 536.304688 585.3125 475.492188 Z M 585.3125 475.492188 " fill-opacity="1" fill-rule="nonzero"/></g></g></g><g clip-path="url(#aaed3c33ac)"><g clip-path="url(#275719c533)"><g clip-path="url(#32c4924b01)"><path fill="#cbb79e" d="M 590.53125 434.34375 C 582.632812 407.476562 577.5625 383.148438 575.46875 361.3125 C 572.71875 333.414062 574.28125 314.191406 575.871094 295.601562 C 577.355469 277.203125 578.960938 258.125 576.488281 230.628906 C 564.949219 107.964844 502.734375 -14.707031 466.640625 -76.902344 L 468.027344 -77.632812 C 504.164062 -15.289062 566.425781 107.53125 578.050781 230.488281 C 580.609375 258.28125 579.003906 277.359375 577.519531 295.757812 C 575.929688 314.347656 574.324219 333.421875 577.179688 361.128906 C 584.757812 436.523438 625.886719 540.378906 702.828125 678.765625 L 701.441406 679.496094 C 646.488281 580.988281 609.851562 500.027344 590.53125 434.34375 Z M 590.53125 434.34375 " fill-opacity="1" fill-rule="nonzero"/></g></g></g><g clip-path="url(#cd5156cdec)"><g clip-path="url(#9b95c1e84e)"><g clip-path="url(#d22a2e42a6)"><path fill="#cbb79e" d="M 589.804688 383.878906 C 587.113281 374.726562 584.847656 365.929688 582.902344 357.683594 C 576.46875 329.261719 575.097656 310.421875 573.714844 290.460938 C 572.527344 273.328125 571.121094 255.460938 566.570312 230.175781 C 549.191406 136.175781 510.476562 24.714844 459.972656 -75.582031 L 461.359375 -76.3125 C 511.761719 24.175781 550.667969 135.742188 568.089844 229.890625 C 572.832031 255.277344 574.046875 273.042969 575.28125 290.320312 C 576.765625 310.09375 578.136719 328.933594 584.378906 357.25 C 599.65625 425.566406 643.988281 525.589844 724.144531 672.175781 L 722.757812 672.90625 C 652.332031 544.148438 609.554688 451.039062 589.804688 383.878906 Z M 589.804688 383.878906 " fill-opacity="1" fill-rule="nonzero"/></g></g></g><g clip-path="url(#14a5a0e045)"><g clip-path="url(#5a9eb5693b)"><g clip-path="url(#4cc57b768e)"><path fill="#cbb79e" d="M 453.726562 -73.90625 L 455.160156 -74.488281 C 490.402344 8.804688 528.015625 119.789062 558.453125 229.835938 C 564.105469 250.144531 567.777344 265.90625 570.886719 279.746094 C 576.15625 302.574219 580.660156 322.257812 592.042969 353.871094 C 614.660156 417.144531 661.484375 508.738281 745.742188 665.984375 L 744.351562 666.714844 C 660.054688 509.320312 613.082031 417.769531 590.570312 354.304688 C 579.332031 322.648438 574.636719 302.859375 569.367188 280.03125 C 566.109375 266.234375 562.585938 250.433594 556.933594 230.125 C 526.539062 120.222656 488.96875 9.386719 453.726562 -73.90625 Z M 453.726562 -73.90625 " fill-opacity="1" fill-rule="nonzero"/></g></g></g><g clip-path="url(#8b08a85478)"><g clip-path="url(#59bf61c224)"><g clip-path="url(#9923bd5978)"><path fill="#cbb79e" d="M 447.25 -72.484375 L 448.726562 -72.917969 C 460.359375 -38.8125 472.167969 -1.386719 484.820312 38.355469 C 504.988281 102.023438 525.808594 167.910156 548.730469 229.488281 L 550.542969 234.570312 C 568.4375 282.871094 575.949219 302.953125 599.476562 350.242188 C 614.332031 380.03125 634.824219 416.988281 660.757812 463.726562 C 689.625 515.539062 725.441406 580.058594 767.292969 659.648438 L 765.902344 660.375 C 724.050781 580.789062 688.238281 516.265625 659.367188 464.457031 C 633.433594 417.714844 612.796875 380.804688 597.898438 350.867188 C 574.324219 303.433594 566.855469 283.496094 548.917969 235.046875 L 547.105469 229.964844 C 524.183594 168.386719 503.363281 102.503906 483.152344 38.683594 C 470.734375 -0.804688 458.886719 -38.375 447.25 -72.484375 Z M 447.25 -72.484375 " fill-opacity="1" fill-rule="nonzero"/></g></g></g><g clip-path="url(#eb07330ae6)"><g clip-path="url(#56882b488c)"><g clip-path="url(#36f5a9eb76)"><path fill="#cbb79e" d="M 477.332031 65.253906 C 465.003906 23.332031 454.585938 -17.546875 445.191406 -54.398438 C 443.691406 -60.050781 442.378906 -65.597656 440.964844 -70.953125 L 442.441406 -71.390625 C 443.855469 -66.03125 445.167969 -60.484375 446.667969 -54.832031 C 468.460938 30.175781 495.445312 136.105469 539.152344 229.097656 C 560.917969 275.300781 574.394531 296.035156 598.992188 333.867188 C 601.621094 337.902344 604.296875 342.089844 607.203125 346.527344 C 611.589844 353.253906 616.253906 360.382812 621.234375 368.058594 C 660.566406 428.179688 719.9375 518.8125 789.136719 653.222656 L 787.746094 653.953125 C 718.59375 519.6875 659.179688 428.910156 619.890625 368.9375 C 614.949219 361.40625 610.242188 354.132812 605.859375 347.402344 C 602.949219 342.964844 600.277344 338.78125 597.644531 334.742188 C 573.046875 296.910156 559.425781 276.21875 537.761719 229.828125 C 512.773438 177.035156 493.484375 120.164062 477.332031 65.253906 Z M 477.332031 65.253906 " fill-opacity="1" fill-rule="nonzero"/></g></g></g><g clip-path="url(#7d116a6783)"><g clip-path="url(#f023a2e82d)"><g clip-path="url(#c699381910)"><path fill="#cbb79e" d="M 468.832031 86.515625 C 453.203125 33.378906 442.796875 -20.011719 434.382812 -69.339844 L 435.902344 -69.625 C 451.9375 25.25 475.671875 134.863281 529.175781 228.984375 C 550.984375 267.15625 567.75 287.082031 590.960938 314.738281 C 598.339844 323.472656 605.765625 332.355469 614.488281 342.941406 C 666.8125 407.417969 736.472656 500.316406 810.539062 646.929688 L 809.152344 647.65625 C 735.273438 501.152344 665.65625 408.398438 613.335938 343.921875 C 604.757812 333.292969 597.140625 324.304688 589.953125 315.675781 C 566.746094 288.019531 549.789062 267.988281 528.082031 229.628906 C 502.136719 184.492188 483.289062 135.671875 468.832031 86.515625 Z M 468.832031 86.515625 " fill-opacity="1" fill-rule="nonzero"/></g></g></g><g clip-path="url(#9a1e16c42a)"><g clip-path="url(#3d437ff062)"><g clip-path="url(#fdc10c464e)"><path fill="#cbb79e" d="M 455.824219 93.550781 C 438.375 34.210938 431.699219 -22.84375 428.097656 -67.8125 L 429.660156 -67.949219 C 436.023438 11.488281 452.1875 128.617188 519.640625 228.742188 C 543.457031 263.917969 563.75 283.289062 589.554688 307.773438 C 599.773438 317.4375 610.226562 327.355469 622.15625 339.5625 C 704.570312 422.9375 773.347656 521.546875 832.28125 640.695312 L 830.894531 641.421875 C 771.957031 522.277344 703.417969 423.917969 621.046875 340.691406 C 609.160156 328.628906 598.515625 318.609375 588.484375 309.050781 C 562.679688 284.5625 542.242188 265.234375 518.339844 229.765625 C 488.941406 185.96875 469.238281 139.160156 455.824219 93.550781 Z M 455.824219 93.550781 " fill-opacity="1" fill-rule="nonzero"/></g></g></g><g clip-path="url(#014f0822c1)"><g clip-path="url(#7f6115fd6c)"><g clip-path="url(#49ccd5f10c)"><path fill="#cbb79e" d="M 442.273438 98.175781 C 427.730469 48.726562 420.878906 -6.191406 421.664062 -66.242188 L 423.269531 -66.230469 C 421.660156 53.722656 450.789062 152.765625 509.960938 228.542969 C 536.214844 262.195312 560.945312 281.386719 589.457031 303.632812 C 601.960938 313.425781 615.039062 323.535156 629.589844 335.933594 C 719.367188 412.167969 794.75 512.527344 853.832031 634.355469 L 852.445312 635.085938 C 793.550781 513.359375 718.210938 413.152344 628.667969 337.164062 C 614.117188 324.765625 601.085938 314.808594 588.582031 305.011719 C 559.875 282.664062 535.148438 263.472656 508.699219 229.714844 C 479.007812 191.457031 456.769531 147.476562 442.273438 98.175781 Z M 442.273438 98.175781 " fill-opacity="1" fill-rule="nonzero"/></g></g></g></svg>